<svg version="1.1" id="Layer_1" xmlns="http://www.w3.org/2000/svg" xmlns:xlink="http://www.w3.org/1999/xlink" x="0px" y="0px"
	 width="100%" viewBox="0 0 2517 2296" enable-background="new 0 0 2517 2296" xml:space="preserve">
<path fill="#282828" opacity="1.000000" stroke="none" 
	d="
M2.000000,800.000000 
	C2.000000,533.333313 2.000000,267.666656 2.000000,2.000000 
	C841.333313,2.000000 1680.666626,2.000000 2520.000000,2.000000 
	C2520.000000,767.333313 2520.000000,1532.666626 2520.000000,2298.000000 
	C1680.666626,2298.000000 841.333313,2298.000000 2.000000,2298.000000 
	C2.000000,1799.000000 2.000000,1300.000000 2.000000,800.000000 
M496.664612,343.977844 
	C496.353729,344.561707 496.042847,345.145569 494.665131,346.166595 
	C494.642212,346.692383 494.619293,347.218170 494.596375,347.743958 
	C495.320587,347.461365 496.044830,347.178741 497.754700,346.510040 
	C498.285919,346.050110 498.817139,345.590179 499.980621,344.816040 
	C500.372742,344.542664 500.695435,344.203278 502.216095,343.054535 
	C505.814484,339.144287 512.301392,337.692963 513.475403,329.986816 
	C506.712769,332.646576 503.220398,337.206543 498.649414,341.955872 
	C498.310211,342.512787 497.971008,343.069702 496.664612,343.977844 
M2226.104736,683.881226 
	C2226.944824,684.868652 2227.784668,685.856018 2229.288086,687.622986 
	C2229.518066,685.512451 2229.897705,684.555115 2229.637939,683.825378 
	C2229.241455,682.712097 2228.403320,681.755981 2226.577881,679.539062 
	C2223.375000,673.094849 2221.946533,665.624817 2215.895996,660.785767 
	C2216.506592,669.554932 2223.049316,675.515747 2226.104736,683.881226 
M2331.841797,1195.732666 
	C2328.248047,1247.616821 2321.336182,1299.071411 2311.097168,1350.045776 
	C2290.775635,1451.215820 2256.228271,1547.470459 2208.150635,1638.642334 
	C2095.362305,1852.528687 1930.695801,2013.732056 1713.693726,2120.655762 
	C1596.385864,2178.457031 1472.183472,2213.148682 1341.941650,2225.434814 
	C1286.830322,2230.633789 1231.588135,2231.433838 1176.219849,2228.561768 
	C1108.805298,2225.064209 1042.304443,2215.560547 976.945435,2199.178711 
	C774.663330,2148.477051 599.578430,2049.346436 454.611298,1899.313599 
	C264.056458,1702.100098 160.973236,1465.471436 142.177704,1190.255615 
	C141.640732,1181.690674 141.103775,1173.125854 140.566818,1164.560913 
	C140.385498,1164.582275 140.204163,1164.603516 140.022842,1164.624756 
	C140.022842,1173.749268 140.022842,1182.873657 139.689178,1193.849121 
	C139.000427,1236.237915 142.341248,1278.353149 147.517914,1320.401733 
	C154.652710,1378.355469 166.421326,1435.307617 183.060898,1491.249390 
	C246.438492,1704.322754 364.618286,1881.621216 535.596069,2022.800293 
	C715.829224,2171.621582 923.784485,2253.749756 1156.913696,2271.580322 
	C1227.878296,2277.008057 1298.732300,2274.972412 1369.401489,2266.413574 
	C1442.314087,2257.582520 1513.848877,2242.381592 1583.481812,2218.984131 
	C1785.607056,2151.067871 1954.857544,2035.101562 2090.172119,1870.187256 
	C2194.294189,1743.288696 2265.521484,1599.843140 2304.472412,1440.338013 
	C2316.343994,1391.723755 2324.396240,1342.490479 2329.578125,1292.777100 
	C2332.998535,1259.961304 2334.985596,1227.039185 2334.605225,1192.483765 
	C2334.605225,1183.838379 2334.605225,1175.192871 2334.605225,1166.547485 
	C2333.993408,1166.542969 2333.381592,1166.538452 2332.769775,1166.533936 
	C2332.532471,1175.698242 2332.294922,1184.862549 2331.841797,1195.732666 
M806.747803,1228.907593 
	C808.406860,1230.989624 809.959961,1233.167236 811.741211,1235.138794 
	C830.129700,1255.492920 851.952209,1267.775635 880.479736,1264.456543 
	C884.770142,1263.957397 889.145447,1264.235107 893.459656,1263.885254 
	C920.129517,1261.722412 946.368103,1257.558472 970.980469,1246.339355 
	C1004.147400,1231.220703 1025.906006,1206.177124 1036.245850,1171.182861 
	C1043.170776,1147.746094 1043.264160,1123.862793 1041.009766,1099.850220 
	C1040.083252,1089.981323 1038.550049,1080.169434 1037.309082,1070.460327 
	C1077.689575,1040.003174 1117.401733,1010.050049 1157.304932,979.952820 
	C1170.313110,1007.198547 1180.663330,1018.120911 1207.823486,1029.683472 
	C1221.501709,1035.506470 1235.953857,1040.232300 1250.519287,1043.106567 
	C1284.584229,1049.828369 1317.505859,1046.080688 1347.999390,1028.084839 
	C1349.370361,1027.275757 1350.889893,1026.718018 1352.565552,1025.938477 
	C1354.827271,1029.350586 1356.847290,1032.376953 1358.846069,1035.417114 
	C1380.057495,1067.679932 1409.894531,1087.484619 1447.353149,1095.662476 
	C1474.429932,1101.573853 1500.250610,1095.956665 1525.292847,1085.295044 
	C1532.005371,1082.437256 1538.845825,1079.857300 1545.715820,1077.396362 
	C1557.367554,1073.222656 1568.651733,1068.406250 1578.378784,1060.521362 
	C1583.651367,1056.247314 1586.035034,1051.231689 1585.399170,1044.026367 
	C1582.558960,1011.837219 1580.343262,979.593262 1577.635620,947.391541 
	C1576.963257,939.394409 1575.733032,931.721802 1581.677490,924.819763 
	C1583.448364,922.763611 1583.604126,919.239746 1584.291626,916.339050 
	C1591.808228,884.626343 1603.376709,854.651550 1622.592896,828.045715 
	C1634.295166,811.843445 1643.078247,812.408203 1650.631592,830.805237 
	C1655.646240,843.019104 1659.201416,856.020874 1661.828735,868.990295 
	C1669.359741,906.165710 1675.554321,943.618225 1687.836060,979.683167 
	C1692.916016,994.600769 1698.854126,1009.069153 1709.123047,1021.202698 
	C1722.987671,1037.584839 1739.040894,1050.556274 1761.477173,1053.176514 
	C1777.878296,1055.091919 1793.300293,1051.663696 1808.183960,1045.261230 
	C1825.179077,1037.950439 1840.014282,1027.247192 1853.946655,1015.212830 
	C1856.650024,1012.877747 1859.446777,1010.650940 1861.658691,1008.822144 
	C1869.766602,1022.044312 1876.736084,1035.291626 1885.469727,1047.250610 
	C1902.302124,1070.298950 1925.074463,1084.296387 1953.624878,1088.592529 
	C1971.645996,1091.303955 1989.511963,1090.645508 2007.276489,1087.081665 
	C2045.312988,1079.451294 2078.589600,1061.821167 2108.926270,1038.143921 
	C2112.558350,1035.309204 2116.134766,1032.403809 2119.909424,1029.393555 
	C2122.001953,1030.770874 2123.668945,1031.799805 2125.265137,1032.928833 
	C2151.737305,1051.652710 2181.129883,1062.002075 2213.488770,1064.382812 
	C2250.456299,1067.102661 2285.741943,1060.044067 2320.007568,1046.806030 
	C2374.084229,1025.914062 2419.770264,992.454834 2460.912109,952.260620 
	C2462.333008,950.872559 2463.619385,949.299683 2464.735107,947.654541 
	C2472.506836,936.195679 2468.895020,927.036743 2455.372314,924.008179 
	C2441.097900,920.811218 2426.903076,921.820740 2412.789551,925.125061 
	C2393.370605,929.671631 2377.558350,940.219666 2363.469238,954.031433 
	C2333.135742,983.767761 2298.962646,1007.629578 2258.214844,1021.052856 
	C2240.666748,1026.833618 2222.750244,1030.332275 2204.171143,1028.121216 
	C2184.117676,1025.734741 2168.429443,1016.261963 2157.768799,998.854370 
	C2155.799805,995.639709 2154.306396,992.660767 2156.175293,988.711792 
	C2158.802979,983.159668 2157.196533,977.894836 2152.666748,974.369934 
	C2148.584717,971.193481 2148.154053,967.393555 2148.185547,962.968750 
	C2148.283936,949.190002 2151.434326,935.964783 2154.787109,922.687988 
	C2159.988770,902.090820 2172.270996,886.996704 2189.873047,875.976379 
	C2209.755127,863.528381 2230.880615,853.970154 2254.220947,849.929382 
	C2257.145508,849.423096 2260.098877,848.541809 2262.777100,847.278748 
	C2266.945312,845.312927 2267.701904,842.014526 2264.776855,838.380737 
	C2262.923828,836.078308 2260.552490,834.116699 2258.167236,832.331421 
	C2246.396729,823.521729 2232.906494,820.451782 2218.538086,821.653442 
	C2174.081543,825.371582 2134.847412,842.662781 2099.619629,869.236389 
	C2066.108154,894.515625 2058.148682,931.546143 2071.684570,970.255310 
	C2072.653564,973.026062 2073.627686,975.794922 2074.350830,977.855774 
	C2068.903320,984.744446 2063.866455,990.913391 2059.048584,997.248840 
	C2049.169189,1010.239136 2039.876709,1023.710754 2029.428833,1036.221191 
	C2022.649292,1044.338989 2014.756958,1051.742554 2006.454224,1058.318359 
	C1996.329102,1066.337158 1984.707397,1066.997925 1973.984131,1059.441284 
	C1968.109009,1055.300903 1962.838013,1049.864746 1958.465820,1044.121216 
	C1949.283325,1032.058350 1943.735840,1018.084167 1939.972534,1003.472107 
	C1928.236450,957.904175 1925.641479,911.410767 1926.999023,864.654724 
	C1927.694580,840.698181 1929.873047,816.785095 1931.356689,792.850830 
	C1932.078857,781.199341 1926.874390,773.395630 1915.814453,772.232605 
	C1892.135132,769.742310 1870.101440,775.116150 1850.607056,789.071716 
	C1844.181641,793.671448 1840.082275,800.245483 1839.872681,808.523621 
	C1839.468140,824.502136 1838.640503,840.497742 1839.025391,856.461304 
	C1839.514648,876.763428 1841.037476,897.040588 1842.104736,917.328979 
	C1842.276001,920.585815 1842.630249,923.472107 1839.931152,926.516724 
	C1818.208496,951.019714 1799.620117,977.820862 1782.723022,1005.827698 
	C1781.598755,1007.691345 1780.184326,1009.380066 1778.311768,1011.970825 
	C1777.248535,1009.537781 1776.431641,1008.145264 1776.016479,1006.641785 
	C1773.270508,996.698914 1770.510986,986.757874 1767.941162,976.768555 
	C1758.575562,940.363342 1749.612549,903.850708 1739.845825,867.553955 
	C1733.367676,843.479614 1721.535889,821.902588 1705.981201,802.427551 
	C1699.879639,794.788269 1692.805176,787.818665 1683.470703,784.692932 
	C1667.595215,779.376587 1651.231689,776.498596 1634.324341,778.913879 
	C1612.915039,781.972229 1594.533203,791.566040 1577.804565,804.802795 
	C1574.272217,807.597778 1570.753784,810.410522 1566.197998,814.035522 
	C1565.054443,798.283264 1564.236694,784.060120 1562.928711,769.882202 
	C1561.759644,757.209839 1557.832397,753.534851 1544.940552,753.920532 
	C1522.479492,754.592407 1502.979126,763.318237 1485.668335,777.287537 
	C1480.947388,781.097290 1478.957275,785.880493 1479.578247,792.197449 
	C1481.305542,809.766846 1482.594238,827.379578 1484.029541,844.977356 
	C1486.439941,874.529419 1488.884766,904.078918 1491.212036,933.637512 
	C1493.487183,962.532959 1495.687744,991.434570 1497.748535,1020.345825 
	C1497.948608,1023.153259 1497.765869,1026.580566 1496.337646,1028.807373 
	C1490.561890,1037.813232 1483.824463,1046.089111 1474.719116,1052.062988 
	C1458.635620,1062.615112 1444.614990,1059.298828 1435.677612,1042.177490 
	C1430.608398,1032.466553 1426.095459,1022.387268 1422.250122,1012.129700 
	C1410.000977,979.453491 1404.374023,945.362976 1401.381470,910.732544 
	C1397.895020,870.386230 1398.622314,830.140930 1405.131592,790.175598 
	C1406.607300,781.115417 1403.780151,774.074158 1394.919556,771.408447 
	C1385.798584,768.664429 1376.171997,767.468262 1366.692627,766.113098 
	C1362.746216,765.548950 1359.063599,765.719727 1355.630737,762.762024 
	C1349.801025,757.739258 1342.671387,756.569458 1335.007202,757.260498 
	C1305.475830,759.923096 1278.482056,769.782837 1254.210449,786.546021 
	C1213.632812,814.570984 1183.467407,850.966492 1167.313477,898.080139 
	C1165.658325,902.907410 1163.004150,905.514832 1158.451172,907.739319 
	C1150.723877,911.514404 1142.837036,915.569336 1136.275146,921.020752 
	C1102.359619,949.196716 1065.669800,973.411987 1028.868652,997.495239 
	C1026.817017,998.837891 1024.547729,999.848206 1021.755371,1001.348755 
	C1018.581177,990.844543 1015.610962,981.356018 1012.846069,971.808105 
	C999.243713,924.835449 983.845093,878.351440 974.556396,830.197571 
	C973.875732,826.668884 970.605591,823.639709 969.629211,818.571045 
	C970.256042,818.251648 970.882812,817.932190 973.029724,817.522461 
	C977.671509,815.115051 976.346191,811.584961 974.631226,808.176575 
	C967.857788,794.714539 957.512939,785.640564 941.941223,785.776306 
	C929.381470,785.885681 916.447083,786.349670 904.353577,789.363525 
	C840.843018,805.191589 800.806641,846.645081 779.999084,907.422424 
	C772.691040,928.768555 770.812134,951.253540 777.307678,973.309937 
	C789.743896,1015.538086 819.226196,1041.007812 860.222961,1053.745972 
	C885.698181,1061.661377 911.490967,1059.845825 937.923950,1053.875122 
	C938.245178,1054.264404 938.566345,1054.653564 937.972961,1056.018188 
	C910.565430,1074.905151 884.393005,1095.356567 859.988220,1118.009766 
	C842.646606,1134.106934 826.570557,1151.342163 813.660217,1171.305054 
	C807.126831,1181.407471 801.608093,1191.956421 798.751343,1204.465942 
	C797.905396,1204.966675 797.059387,1205.467285 795.324402,1204.892578 
	C778.094788,1171.779297 751.702393,1149.046753 716.929138,1135.897461 
	C678.428528,1121.338867 638.710144,1120.724243 598.700500,1126.720825 
	C527.557068,1137.383545 468.791809,1170.692993 421.979797,1225.182739 
	C375.740753,1279.005615 345.882568,1339.794067 343.219543,1411.985474 
	C340.541168,1484.592773 365.353943,1545.038330 422.779205,1590.949097 
	C455.528198,1617.131348 492.586609,1634.860107 532.790710,1646.015625 
	C579.486267,1658.972290 627.127930,1666.118164 675.545837,1668.722656 
	C723.068726,1671.278809 770.100830,1667.828491 816.766968,1659.013184 
	C880.134216,1647.043457 939.806152,1624.691895 995.904358,1593.090210 
	C1034.488770,1571.354370 1072.469604,1548.547241 1110.732544,1526.240234 
	C1113.774536,1524.466919 1116.912720,1522.858765 1120.211548,1521.062134 
	C1127.415649,1552.228516 1137.072876,1566.057983 1161.992065,1579.167725 
	C1172.250488,1584.564331 1183.019775,1589.445068 1194.096924,1592.749023 
	C1235.593872,1605.126343 1276.227295,1604.814209 1314.720215,1581.991455 
	C1315.487061,1581.536621 1316.461792,1581.432251 1317.090088,1581.240479 
	C1360.740967,1645.415649 1417.683472,1669.010620 1492.940552,1639.819092 
	C1495.012085,1646.635498 1497.149170,1653.200928 1498.988525,1659.848999 
	C1500.923218,1666.841797 1502.573120,1673.913330 1504.339233,1680.918335 
	C1502.715454,1682.109741 1501.725220,1682.980957 1500.607910,1683.635254 
	C1464.947388,1704.520752 1430.437866,1727.061157 1397.821411,1752.548828 
	C1377.966553,1768.063965 1361.067261,1786.369629 1344.706421,1805.237305 
	C1334.552246,1816.947388 1329.826416,1831.170288 1329.864746,1846.712036 
	C1329.953613,1882.682007 1345.728760,1910.799561 1373.995850,1932.090210 
	C1392.057373,1945.694214 1412.859009,1949.995605 1434.632446,1944.447998 
	C1480.568115,1932.743652 1515.605957,1905.886719 1537.765991,1863.985229 
	C1555.256958,1830.912109 1563.717285,1794.854858 1565.961426,1757.571411 
	C1566.956055,1741.048340 1566.129150,1724.415527 1566.129150,1708.294189 
	C1570.651978,1705.190552 1574.220703,1702.762939 1577.768066,1700.304199 
	C1619.660645,1671.267090 1660.435425,1640.911011 1694.799683,1601.830078 
	C1695.510132,1602.106445 1697.061157,1602.629028 1698.545776,1603.299072 
	C1720.699341,1613.298584 1744.152588,1618.215576 1768.210938,1619.548096 
	C1809.973267,1621.860840 1851.488281,1619.412354 1892.342285,1609.789307 
	C1945.002075,1597.385498 1991.736572,1573.895020 2030.140015,1535.141479 
	C2033.162964,1532.090942 2036.134644,1528.799927 2038.307251,1525.133057 
	C2043.889648,1515.712158 2041.369751,1508.086182 2031.104248,1504.644775 
	C2025.195923,1502.663940 2018.767944,1501.721558 2012.514404,1501.369141 
	C1984.716309,1499.802368 1959.316284,1504.955444 1941.020874,1528.559814 
	C1881.816772,1585.822876 1813.000854,1602.783447 1734.126465,1578.127563 
	C1724.127441,1575.001953 1717.406250,1568.738403 1713.366333,1559.410522 
	C1711.258789,1554.544800 1709.175537,1549.551636 1708.034546,1544.404785 
	C1703.689941,1524.807129 1701.566040,1505.031006 1703.892578,1484.909180 
	C1708.924194,1441.393677 1730.844849,1408.311157 1766.246216,1383.574097 
	C1773.955322,1378.187256 1782.472168,1374.346802 1792.088745,1373.767212 
	C1803.399048,1373.085571 1806.335571,1376.518921 1803.159668,1387.181396 
	C1799.455566,1399.617188 1795.832886,1412.104126 1791.425659,1424.297974 
	C1783.974976,1444.912109 1777.927856,1466.142090 1766.119995,1484.967041 
	C1764.927368,1486.868164 1764.278931,1489.278198 1763.965210,1491.533691 
	C1762.597656,1501.368530 1766.917236,1508.333496 1777.418579,1512.083740 
	C1792.814087,1517.582031 1808.766968,1518.466187 1824.712769,1515.323120 
	C1836.601929,1512.979614 1845.986572,1506.446045 1852.678223,1495.993652 
	C1876.520264,1458.753052 1878.570068,1419.809692 1861.539062,1379.635620 
	C1852.963989,1359.408325 1837.667480,1346.142212 1816.130127,1340.934814 
	C1809.062866,1339.226196 1801.664307,1338.244751 1794.395996,1338.114258 
	C1741.356323,1337.161255 1696.164551,1356.180786 1658.196167,1392.777954 
	C1645.375488,1405.135620 1634.209229,1419.004150 1628.711914,1436.212646 
	C1612.921753,1485.642334 1620.890625,1530.816772 1654.179810,1571.087891 
	C1656.229248,1573.567383 1658.406860,1575.941162 1661.277832,1579.225464 
	C1619.773193,1588.678223 1588.636475,1612.937622 1560.026367,1643.186890 
	C1559.038330,1639.902588 1558.411987,1638.110962 1557.960571,1636.276245 
	C1551.523438,1610.105103 1546.095703,1583.637329 1538.476074,1557.815918 
	C1524.633789,1510.906738 1509.534790,1464.367554 1494.874512,1417.700928 
	C1486.647095,1391.511719 1481.113281,1364.784790 1480.419312,1337.329712 
	C1478.528687,1262.535034 1506.488892,1199.706299 1558.234619,1146.775513 
	C1567.821655,1136.968750 1578.859741,1128.853394 1591.482544,1123.184814 
	C1593.352051,1122.345215 1595.531494,1122.195557 1597.846558,1121.662476 
	C1599.289062,1149.008301 1596.025757,1175.078003 1591.959106,1201.111450 
	C1585.047974,1245.352417 1571.961304,1287.297852 1546.858398,1324.905151 
	C1542.052002,1332.105713 1537.822754,1339.702393 1532.829346,1346.764160 
	C1528.634644,1352.696533 1523.728027,1358.127075 1519.109619,1363.757568 
	C1517.424316,1365.812012 1515.382935,1367.627319 1513.980835,1369.852295 
	C1507.580933,1380.007812 1512.297974,1389.830811 1524.130615,1390.368164 
	C1530.059937,1390.637329 1536.133301,1390.006958 1542.000000,1388.976929 
	C1563.855591,1385.139404 1582.901978,1375.089966 1599.932861,1361.229004 
	C1627.421509,1338.856934 1649.268433,1311.688965 1666.014404,1280.552002 
	C1681.982788,1250.860718 1688.730469,1218.908203 1687.696167,1185.231201 
	C1686.836670,1157.248047 1675.738159,1134.387085 1654.026733,1116.708984 
	C1642.060059,1106.965454 1628.883423,1099.260742 1614.572144,1093.487915 
	C1588.332642,1082.903564 1562.884521,1083.869873 1537.536377,1097.134399 
	C1481.959595,1126.217651 1443.384155,1170.341675 1420.070068,1228.157349 
	C1396.782227,1285.907959 1391.874023,1344.617310 1409.417236,1405.104370 
	C1421.860107,1448.005859 1436.440552,1490.071289 1452.998657,1531.506714 
	C1458.911743,1546.303711 1464.684814,1561.156494 1470.119385,1574.961670 
	C1464.632935,1581.295288 1460.135864,1586.991211 1455.099976,1592.162598 
	C1449.785034,1597.620483 1444.515991,1603.421753 1438.239380,1607.584106 
	C1423.623291,1617.277222 1409.575806,1613.643799 1401.283691,1598.159180 
	C1396.114746,1588.506836 1391.640503,1578.404419 1387.732788,1568.168579 
	C1371.491211,1525.623779 1366.302979,1481.031860 1364.406738,1435.954834 
	C1363.129150,1405.583496 1365.386841,1375.358765 1369.837646,1345.285645 
	C1371.541016,1333.776245 1369.265747,1329.003906 1358.202881,1325.525391 
	C1349.434204,1322.768433 1339.968506,1322.273315 1330.857300,1320.537842 
	C1327.416260,1319.882446 1323.612915,1319.286499 1320.827393,1317.402466 
	C1314.419189,1313.068237 1307.585571,1310.641235 1300.087646,1312.117920 
	C1286.090576,1314.874634 1271.592896,1316.633057 1258.403564,1321.681030 
	C1201.626953,1343.410889 1162.675659,1384.125854 1137.594482,1438.813965 
	C1134.831421,1444.838989 1132.694092,1451.150879 1130.126831,1457.685303 
	C1110.099243,1462.808472 1091.066406,1470.636108 1073.265137,1481.305664 
	C1056.695557,1491.236816 1040.222534,1501.329346 1023.726624,1511.383057 
	C986.474731,1534.087036 949.674683,1557.573364 911.896484,1579.364380 
	C838.415771,1621.749268 759.075439,1642.301147 674.052734,1640.661865 
	C627.698975,1639.768066 582.616882,1632.590332 539.147827,1616.070801 
	C516.410034,1607.429688 495.843719,1595.567383 479.290985,1577.405273 
	C464.755219,1561.456421 453.825928,1543.288696 445.946350,1523.254517 
	C427.953491,1477.506958 426.660156,1430.388428 434.951294,1382.631348 
	C440.888855,1348.431152 453.808319,1316.856934 472.076416,1287.374268 
	C495.251221,1249.972900 522.317261,1215.991333 557.690857,1189.286743 
	C576.993347,1174.714600 597.872559,1163.288086 621.656677,1157.582153 
	C642.752747,1152.520874 661.904480,1156.397827 679.495605,1168.843018 
	C690.795654,1176.837646 700.109619,1186.814209 707.773132,1198.228271 
	C726.732117,1226.466187 740.113953,1257.050537 745.905884,1290.758301 
	C746.519531,1294.329346 747.553772,1297.922729 749.010437,1301.234131 
	C751.827087,1307.636719 756.839355,1310.811646 764.048096,1310.614502 
	C771.513245,1310.410400 777.860291,1307.573730 782.537842,1302.070190 
	C786.590332,1297.302124 790.341125,1292.022705 793.031067,1286.398315 
	C801.822449,1268.015991 805.988037,1248.685181 804.351501,1228.150635 
	C804.809082,1228.106201 805.266724,1228.061768 806.747803,1228.907593 
M522.748962,630.213440 
	C515.218262,594.850952 504.096039,560.767639 485.209229,529.712097 
	C448.392731,469.174927 394.343170,437.505981 323.524811,436.025055 
	C265.558258,434.812897 213.818375,454.251648 166.731506,487.085327 
	C162.140549,490.286591 158.365173,494.659729 154.223541,498.502197 
	C152.038147,500.529694 150.038605,502.793579 147.684708,504.597931 
	C112.722298,531.398315 85.666840,564.727966 65.502419,603.784851 
	C44.341206,644.772461 32.209652,688.511169 26.290417,734.046814 
	C22.760094,761.204895 21.674339,788.588257 24.773485,815.802124 
	C30.069675,862.308350 46.505333,905.020020 73.343025,943.251221 
	C131.190048,1025.656128 209.974060,1066.068848 311.012390,1053.567993 
	C389.971283,1043.799194 450.889496,1002.699341 491.821838,933.996033 
	C521.862305,883.574402 533.488159,827.797424 535.593445,769.796204 
	C537.280090,723.327393 532.361572,677.364014 522.748962,630.213440 
M1802.578247,238.319153 
	C1846.712158,264.624268 1888.855713,293.811279 1928.837036,326.072693 
	C1980.804932,368.006104 2029.248535,413.610168 2073.294434,463.911591 
	C2107.813721,503.333771 2140.178467,544.354614 2168.710938,588.301880 
	C2183.383301,610.900940 2197.209717,634.050110 2211.340576,656.998535 
	C2212.645752,659.117981 2213.263184,661.780884 2217.676758,660.540588 
	C2210.234375,644.375916 2203.694092,628.478210 2195.786865,613.292114 
	C2163.559814,551.398071 2126.203125,492.799957 2082.528809,438.263214 
	C2046.406982,393.157562 2007.139160,350.952698 1964.100342,312.509277 
	C1914.090576,267.839264 1860.658813,227.601990 1803.012207,193.002975 
	C1743.163940,157.082581 1680.821655,126.556808 1615.242065,102.682816 
	C1522.099609,68.774620 1426.085205,47.787895 1327.263672,40.362087 
	C1227.056519,32.832176 1127.407593,38.170418 1028.957886,58.539211 
	C858.961182,93.710732 706.038757,165.410736 571.769287,275.908112 
	C553.003723,291.351257 535.265747,308.045837 517.140015,324.259399 
	C515.223267,325.973938 513.902161,328.354340 512.304749,330.425842 
	C512.883362,330.980316 513.462036,331.534821 514.040649,332.089325 
	C516.352417,330.555847 518.778687,329.169159 520.959351,327.467682 
	C594.518616,270.073486 673.293518,221.179886 758.227722,182.437286 
	C899.721008,117.895264 1048.128418,82.982864 1203.747314,80.353462 
	C1241.354126,79.718040 1279.121094,80.365257 1316.610107,83.161827 
	C1357.065552,86.179688 1397.262695,92.131660 1437.294189,99.507942 
	C1500.379395,111.132103 1561.898804,128.208817 1621.680054,150.901276 
	C1683.965942,174.544388 1744.459473,202.427765 1802.578247,238.319153 
M632.870605,775.852173 
	C629.879822,775.620544 626.891785,775.236755 623.897766,775.183044 
	C609.198181,774.919373 594.542664,775.302551 580.511292,780.410889 
	C573.123901,783.100342 568.586426,787.527649 568.047913,796.427979 
	C564.739380,851.108521 566.279053,905.726196 570.768677,960.212708 
	C574.158875,1001.356384 579.857849,1042.305664 583.667786,1083.421265 
	C584.960205,1097.369263 593.398682,1100.837646 603.805115,1099.447266 
	C624.071045,1096.739746 642.050720,1088.457153 657.855042,1075.443848 
	C663.203674,1071.039673 665.010742,1065.740479 664.290833,1058.725708 
	C661.570312,1032.216797 659.137085,1005.674438 656.965393,979.114380 
	C655.724304,963.935547 655.195862,948.698425 654.343628,933.436035 
	C661.701660,931.192444 668.091370,930.402283 670.771118,921.704590 
	C681.014587,888.457703 703.593933,865.996887 735.078735,852.097900 
	C753.877441,843.799133 773.759338,840.020264 794.100647,838.136353 
	C798.032349,837.772156 802.017212,837.046936 805.755066,835.813782 
	C808.857544,834.790222 810.422485,832.371887 809.113464,828.694153 
	C805.525696,818.614014 793.626587,810.130249 782.726074,810.449219 
	C776.740662,810.624329 770.768066,811.344238 764.797424,811.901550 
	C728.639282,815.276367 693.940491,823.738464 661.892456,841.447937 
	C659.944397,842.524475 657.854736,843.344788 654.630798,844.841614 
	C655.601562,830.477417 656.380737,817.299316 657.407288,804.140564 
	C658.959229,784.247314 656.279480,780.560730 636.561401,776.242432 
	C635.913391,776.100525 635.239319,776.077332 632.870605,775.852173 
M1915.240234,593.536560 
	C1913.077393,586.100037 1915.297852,579.038269 1917.095825,571.943604 
	C1920.417236,558.836304 1917.968750,554.527588 1905.005981,550.820984 
	C1903.412109,550.365173 1901.763184,550.089050 1900.128662,549.790710 
	C1883.579712,546.770691 1866.962402,547.381653 1850.361816,549.108826 
	C1844.188599,549.751160 1838.082520,551.038452 1831.100098,552.168518 
	C1831.100098,558.755615 1830.624023,564.419983 1831.191284,569.977905 
	C1832.745239,585.204895 1834.479370,600.423889 1836.640137,615.575134 
	C1838.315186,627.319824 1843.121704,630.623779 1855.334595,628.880188 
	C1875.843872,625.952332 1894.028809,617.183838 1911.303589,606.157227 
	C1915.617310,603.403870 1916.886230,599.890991 1915.240234,593.536560 
M909.234863,583.225891 
	C922.741821,584.399109 929.021667,590.615234 929.509521,604.052856 
	C929.859802,613.701355 929.584656,623.372620 929.587280,633.033691 
	C929.588745,638.551697 929.587524,644.069702 929.587524,649.609863 
	C934.087097,649.609863 937.303650,649.609863 941.499146,649.609863 
	C941.499146,634.234375 941.578979,619.304688 941.437073,604.377136 
	C941.405762,601.079773 940.871277,597.721252 940.089172,594.507568 
	C934.905090,573.206970 910.384583,565.151001 893.548035,579.179016 
	C891.106201,581.213501 888.859558,583.482361 886.544617,585.622375 
	C871.264343,568.876099 859.182678,567.760620 840.426575,581.359924 
	C839.933105,578.838928 839.453308,576.387695 839.052124,574.338196 
	C834.923462,574.338196 831.472168,574.338196 828.412842,574.338196 
	C828.412842,599.944092 828.412842,624.799561 828.412842,649.590576 
	C832.302307,649.590576 835.516418,649.590576 839.747375,649.590576 
	C839.747375,645.872498 839.746582,642.625366 839.747559,639.378174 
	C839.751038,627.385132 839.562622,615.388000 839.813171,603.400146 
	C840.062561,591.464600 847.642761,583.642151 858.829712,583.193420 
	C870.014099,582.744751 877.698425,590.038879 878.218445,602.602661 
	C878.727722,614.908569 878.437012,627.247742 878.490417,639.572327 
	C878.504456,642.810181 878.492554,646.048157 878.492554,649.652344 
	C882.857178,649.652344 886.043762,649.652344 890.251465,649.652344 
	C890.251465,646.019958 890.250244,642.761353 890.251648,639.502747 
	C890.256897,627.842834 890.038147,616.177185 890.331360,604.524536 
	C890.631775,592.583496 895.662720,586.733521 909.234863,583.225891 
M1217.255981,639.694641 
	C1233.377563,654.832886 1248.462280,655.444885 1270.815063,641.485168 
	C1271.374390,644.418823 1271.888428,647.115662 1272.471069,650.171387 
	C1276.311401,649.978333 1279.503052,649.817871 1282.892090,649.647461 
	C1282.892090,613.891663 1282.892090,578.821350 1282.892090,543.631470 
	C1278.838745,543.631470 1275.431763,543.631470 1271.776123,543.631470 
	C1271.111450,556.703308 1272.191772,569.122986 1270.953003,583.044800 
	C1268.298950,581.035156 1267.094604,580.077454 1265.844604,579.183594 
	C1243.450195,563.169006 1212.470825,575.693115 1208.149048,602.787659 
	C1206.102417,615.619629 1207.488770,628.057251 1217.255981,639.694641 
M1027.599609,649.650452 
	C1032.149048,640.146912 1036.698486,630.643372 1041.462524,620.691772 
	C1056.270264,620.691772 1070.896362,620.787292 1085.519775,620.630737 
	C1089.628662,620.586731 1091.303101,622.682861 1092.686157,626.119873 
	C1095.888916,634.078979 1099.423462,641.904663 1102.657104,649.398804 
	C1107.223145,649.398804 1110.971313,649.398804 1115.629639,649.398804 
	C1101.108887,615.221680 1086.971436,581.946472 1072.883789,548.788696 
	C1067.641357,548.788696 1063.359863,548.788696 1058.291260,548.788696 
	C1044.151489,582.140137 1029.989136,615.544983 1015.374634,650.016235 
	C1020.098694,650.016235 1023.064880,650.016235 1027.599609,649.650452 
M1393.718384,564.085144 
	C1418.883789,553.155151 1435.810547,560.459961 1447.347778,579.496033 
	C1450.568359,579.353455 1454.028809,579.200195 1457.842285,579.031372 
	C1457.439087,577.160706 1457.396484,576.157471 1457.014160,575.306946 
	C1447.811890,554.833984 1427.392334,544.538879 1403.361694,548.218079 
	C1382.753418,551.373230 1366.792725,568.388123 1364.267822,590.460938 
	C1363.592285,596.366943 1363.583496,602.481140 1364.259033,608.386475 
	C1366.842163,630.970520 1382.505493,647.237000 1404.358521,650.597717 
	C1427.726318,654.191345 1447.878662,643.902954 1457.009888,623.650024 
	C1457.463989,622.642700 1457.374268,621.390259 1457.568604,620.037720 
	C1453.328369,620.037720 1449.766479,620.037720 1446.269043,620.037720 
	C1445.186279,621.787109 1444.350342,623.217957 1443.438354,624.598755 
	C1435.418457,636.744202 1423.752930,640.996643 1409.804199,639.588928 
	C1395.930054,638.188660 1385.274292,631.776794 1379.357788,618.613159 
	C1370.682617,599.311584 1375.789551,578.160828 1393.718384,564.085144 
M755.749390,611.001038 
	C755.749390,598.798462 755.749390,586.595825 755.749390,574.211182 
	C751.302673,574.211182 747.845642,574.211182 744.417908,574.211182 
	C743.999023,577.258118 743.663086,579.701538 743.206238,583.024719 
	C741.481018,581.743347 740.465027,581.016724 739.478455,580.252075 
	C718.032837,563.628174 688.792297,573.249512 681.365906,599.376709 
	C676.270081,617.304810 682.515381,636.360413 696.412659,645.610718 
	C707.904419,653.259888 729.191406,654.523682 741.678711,641.611511 
	C741.999329,641.279968 742.893982,641.503418 743.597900,641.463745 
	C743.848938,644.058655 744.100098,646.654175 744.369507,649.438599 
	C748.104858,649.438599 751.566711,649.438599 755.749390,649.438599 
	C755.749390,636.877991 755.749390,624.938843 755.749390,611.001038 
M1629.592651,574.029602 
	C1606.865356,581.101196 1599.947632,606.134033 1606.014526,625.334229 
	C1612.255371,645.085266 1632.316162,655.445068 1654.113037,649.920105 
	C1665.459351,647.044067 1672.730835,639.648560 1677.551758,628.094849 
	C1672.469971,628.094849 1668.869873,628.094849 1665.428101,628.094849 
	C1654.924561,641.891602 1645.546265,641.962341 1633.871826,638.996460 
	C1623.773560,636.431030 1617.837769,627.590454 1617.550537,615.999573 
	C1638.309570,615.999573 1659.057739,615.999573 1679.657837,615.999573 
	C1682.521118,586.726318 1658.997192,566.305176 1629.592651,574.029602 
M1503.378296,572.227539 
	C1495.231934,572.848328 1487.589966,575.024780 1481.428101,580.601929 
	C1469.161011,591.705261 1465.854614,605.839294 1469.130615,621.490295 
	C1473.839600,643.987183 1493.863647,656.150269 1515.807983,649.775146 
	C1521.311890,648.176270 1526.198364,644.452637 1531.648682,641.556641 
	C1531.982544,644.155151 1532.333008,646.882019 1532.689453,649.656372 
	C1536.648560,649.656372 1539.863770,649.656372 1543.442871,649.656372 
	C1543.442871,624.179810 1543.442871,599.114624 1543.442871,574.022949 
	C1539.547485,574.022949 1536.297852,574.022949 1532.909790,574.022949 
	C1532.288940,576.993530 1531.744995,579.596741 1531.118774,582.593384 
	C1519.756470,573.956360 1517.244263,572.976013 1503.378296,572.227539 
M663.649841,606.214905 
	C669.657654,603.476318 666.009216,599.233643 666.003784,594.520264 
	C647.855225,594.520264 630.366455,594.520264 612.588318,594.520264 
	C612.588318,582.759338 612.588318,571.934937 612.588318,559.887756 
	C633.162170,559.887756 653.277649,559.887756 673.960449,559.887756 
	C673.611633,555.456848 673.363403,552.304016 673.114868,549.146667 
	C648.478577,549.146667 624.665222,549.146667 600.628479,549.146667 
	C600.628479,582.963135 600.628479,616.117371 600.628479,649.395264 
	C604.632629,649.395264 608.046936,649.395264 612.321167,649.395264 
	C612.321167,634.876221 612.321167,621.025574 612.321167,606.254578 
	C629.411621,606.254578 645.649719,606.254578 663.649841,606.214905 
M1193.505737,605.664185 
	C1193.477417,604.666382 1193.508667,603.662720 1193.411743,602.671631 
	C1192.154663,589.819580 1186.699097,579.469055 1174.304688,574.534363 
	C1161.741943,569.532776 1150.129395,571.864441 1140.292847,581.550781 
	C1139.904541,581.933167 1139.065674,581.858032 1138.220337,582.043518 
	C1137.904907,579.451782 1137.593872,576.894958 1137.252075,574.085815 
	C1133.355957,574.085815 1129.816895,574.085815 1126.227417,574.085815 
	C1126.227417,599.437683 1126.227417,624.295593 1126.227417,649.431152 
	C1130.146606,649.431152 1133.562256,649.431152 1137.748535,649.431152 
	C1137.748535,645.536316 1137.749023,642.267456 1137.748413,638.998535 
	C1137.746704,628.015015 1137.551147,617.027283 1137.791626,606.049072 
	C1138.092529,592.315125 1147.153198,583.253662 1160.220581,583.169556 
	C1172.820435,583.088440 1181.034180,591.523254 1181.595825,605.705750 
	C1181.964355,615.011047 1181.719727,624.340942 1181.739624,633.659790 
	C1181.750854,638.901367 1181.741699,644.142944 1181.741699,649.627319 
	C1186.031860,649.627319 1189.217407,649.627319 1193.508545,649.627319 
	C1193.508545,635.318909 1193.508545,621.419983 1193.505737,605.664185 
M1568.509033,593.258789 
	C1568.509033,611.847229 1568.509033,630.435669 1568.509033,649.535156 
	C1572.937256,649.535156 1576.410767,649.535156 1580.695312,649.535156 
	C1580.695312,627.555298 1580.695312,606.066101 1580.695312,584.289185 
	C1586.706299,583.989929 1591.928467,583.729858 1597.576294,583.448669 
	C1597.576294,580.099792 1597.576294,577.306458 1597.576294,573.696533 
	C1591.916992,573.696533 1586.700195,573.696533 1579.869385,573.696533 
	C1580.817627,568.241760 1580.921509,563.581909 1582.499390,559.490479 
	C1585.058105,552.855774 1592.651367,554.425232 1598.161011,551.639282 
	C1597.927856,548.342773 1597.706665,545.215637 1597.490479,542.159729 
	C1577.007690,542.294434 1572.237671,547.312134 1567.293579,573.243347 
	C1563.615845,573.526428 1559.818481,573.818726 1555.559692,574.146545 
	C1555.770386,577.784424 1555.937012,580.664551 1556.108887,583.633423 
	C1560.321655,583.830566 1563.908936,583.998413 1567.989868,584.189392 
	C1568.181396,586.832947 1568.344727,589.087463 1568.509033,593.258789 
M786.605530,645.735962 
	C786.616516,636.439209 786.391602,627.134888 786.686707,617.847168 
	C787.336365,597.403931 795.454102,587.589905 815.209473,583.033752 
	C815.209473,579.590515 815.209473,576.126404 815.209473,571.154602 
	C809.279785,573.098450 803.994446,574.053833 799.539001,576.512878 
	C795.187683,578.914551 791.683594,582.851379 787.219360,586.609497 
	C786.770386,581.898132 786.405151,578.064758 786.032593,574.154541 
	C782.327942,574.154541 779.125854,574.154541 775.734131,574.154541 
	C775.734131,599.491760 775.734131,624.330994 775.734131,649.691528 
	C779.669128,649.256287 783.717285,652.319397 786.605530,645.735962 
z"/>
<path fill="#FDFDFD" opacity="1.000000" stroke="none" 
	d="
M802.973328,1228.209229 
	C805.988037,1248.685181 801.822449,1268.015991 793.031067,1286.398315 
	C790.341125,1292.022705 786.590332,1297.302124 782.537842,1302.070190 
	C777.860291,1307.573730 771.513245,1310.410400 764.048096,1310.614502 
	C756.839355,1310.811646 751.827087,1307.636719 749.010437,1301.234131 
	C747.553772,1297.922729 746.519531,1294.329346 745.905884,1290.758301 
	C740.113953,1257.050537 726.732117,1226.466187 707.773132,1198.228271 
	C700.109619,1186.814209 690.795654,1176.837646 679.495605,1168.843018 
	C661.904480,1156.397827 642.752747,1152.520874 621.656677,1157.582153 
	C597.872559,1163.288086 576.993347,1174.714600 557.690857,1189.286743 
	C522.317261,1215.991333 495.251221,1249.972900 472.076416,1287.374268 
	C453.808319,1316.856934 440.888855,1348.431152 434.951294,1382.631348 
	C426.660156,1430.388428 427.953491,1477.506958 445.946350,1523.254517 
	C453.825928,1543.288696 464.755219,1561.456421 479.290985,1577.405273 
	C495.843719,1595.567383 516.410034,1607.429688 539.147827,1616.070801 
	C582.616882,1632.590332 627.698975,1639.768066 674.052734,1640.661865 
	C759.075439,1642.301147 838.415771,1621.749268 911.896484,1579.364380 
	C949.674683,1557.573364 986.474731,1534.087036 1023.726624,1511.383057 
	C1040.222534,1501.329346 1056.695557,1491.236816 1073.265137,1481.305664 
	C1091.066406,1470.636108 1110.099243,1462.808472 1130.126831,1457.685303 
	C1132.694092,1451.150879 1134.831421,1444.838989 1137.594482,1438.813965 
	C1162.675659,1384.125854 1201.626953,1343.410889 1258.403564,1321.681030 
	C1271.592896,1316.633057 1286.090576,1314.874634 1300.087646,1312.117920 
	C1307.585571,1310.641235 1314.419189,1313.068237 1320.827393,1317.402466 
	C1323.612915,1319.286499 1327.416260,1319.882446 1330.857300,1320.537842 
	C1339.968506,1322.273315 1349.434204,1322.768433 1358.202881,1325.525391 
	C1369.265747,1329.003906 1371.541016,1333.776245 1369.837646,1345.285645 
	C1365.386841,1375.358765 1363.129150,1405.583496 1364.406738,1435.954834 
	C1366.302979,1481.031860 1371.491211,1525.623779 1387.732788,1568.168579 
	C1391.640503,1578.404419 1396.114746,1588.506836 1401.283691,1598.159180 
	C1409.575806,1613.643799 1423.623291,1617.277222 1438.239380,1607.584106 
	C1444.515991,1603.421753 1449.785034,1597.620483 1455.099976,1592.162598 
	C1460.135864,1586.991211 1464.632935,1581.295288 1470.119385,1574.961670 
	C1464.684814,1561.156494 1458.911743,1546.303711 1452.998657,1531.506714 
	C1436.440552,1490.071289 1421.860107,1448.005859 1409.417236,1405.104370 
	C1391.874023,1344.617310 1396.782227,1285.907959 1420.070068,1228.157349 
	C1443.384155,1170.341675 1481.959595,1126.217651 1537.536377,1097.134399 
	C1562.884521,1083.869873 1588.332642,1082.903564 1614.572144,1093.487915 
	C1628.883423,1099.260742 1642.060059,1106.965454 1654.026733,1116.708984 
	C1675.738159,1134.387085 1686.836670,1157.248047 1687.696167,1185.231201 
	C1688.730469,1218.908203 1681.982788,1250.860718 1666.014404,1280.552002 
	C1649.268433,1311.688965 1627.421509,1338.856934 1599.932861,1361.229004 
	C1582.901978,1375.089966 1563.855591,1385.139404 1542.000000,1388.976929 
	C1536.133301,1390.006958 1530.059937,1390.637329 1524.130615,1390.368164 
	C1512.297974,1389.830811 1507.580933,1380.007812 1513.980835,1369.852295 
	C1515.382935,1367.627319 1517.424316,1365.812012 1519.109619,1363.757568 
	C1523.728027,1358.127075 1528.634644,1352.696533 1532.829346,1346.764160 
	C1537.822754,1339.702393 1542.052002,1332.105713 1546.858398,1324.905151 
	C1571.961304,1287.297852 1585.047974,1245.352417 1591.959106,1201.111450 
	C1596.025757,1175.078003 1599.289062,1149.008301 1597.846558,1121.662476 
	C1595.531494,1122.195557 1593.352051,1122.345215 1591.482544,1123.184814 
	C1578.859741,1128.853394 1567.821655,1136.968750 1558.234619,1146.775513 
	C1506.488892,1199.706299 1478.528687,1262.535034 1480.419312,1337.329712 
	C1481.113281,1364.784790 1486.647095,1391.511719 1494.874512,1417.700928 
	C1509.534790,1464.367554 1524.633789,1510.906738 1538.476074,1557.815918 
	C1546.095703,1583.637329 1551.523438,1610.105103 1557.960571,1636.276245 
	C1558.411987,1638.110962 1559.038330,1639.902588 1560.026367,1643.186890 
	C1588.636475,1612.937622 1619.773193,1588.678223 1661.277832,1579.225464 
	C1658.406860,1575.941162 1656.229248,1573.567383 1654.179810,1571.087891 
	C1620.890625,1530.816772 1612.921753,1485.642334 1628.711914,1436.212646 
	C1634.209229,1419.004150 1645.375488,1405.135620 1658.196167,1392.777954 
	C1696.164551,1356.180786 1741.356323,1337.161255 1794.395996,1338.114258 
	C1801.664307,1338.244751 1809.062866,1339.226196 1816.130127,1340.934814 
	C1837.667480,1346.142212 1852.963989,1359.408325 1861.539062,1379.635620 
	C1878.570068,1419.809692 1876.520264,1458.753052 1852.678223,1495.993652 
	C1845.986572,1506.446045 1836.601929,1512.979614 1824.712769,1515.323120 
	C1808.766968,1518.466187 1792.814087,1517.582031 1777.418579,1512.083740 
	C1766.917236,1508.333496 1762.597656,1501.368530 1763.965210,1491.533691 
	C1764.278931,1489.278198 1764.927368,1486.868164 1766.119995,1484.967041 
	C1777.927856,1466.142090 1783.974976,1444.912109 1791.425659,1424.297974 
	C1795.832886,1412.104126 1799.455566,1399.617188 1803.159668,1387.181396 
	C1806.335571,1376.518921 1803.399048,1373.085571 1792.088745,1373.767212 
	C1782.472168,1374.346802 1773.955322,1378.187256 1766.246216,1383.574097 
	C1730.844849,1408.311157 1708.924194,1441.393677 1703.892578,1484.909180 
	C1701.566040,1505.031006 1703.689941,1524.807129 1708.034546,1544.404785 
	C1709.175537,1549.551636 1711.258789,1554.544800 1713.366333,1559.410522 
	C1717.406250,1568.738403 1724.127441,1575.001953 1734.126465,1578.127563 
	C1813.000854,1602.783447 1881.816772,1585.822876 1941.020874,1528.559814 
	C1959.316284,1504.955444 1984.716309,1499.802368 2012.514404,1501.369141 
	C2018.767944,1501.721558 2025.195923,1502.663940 2031.104248,1504.644775 
	C2041.369751,1508.086182 2043.889648,1515.712158 2038.307251,1525.133057 
	C2036.134644,1528.799927 2033.162964,1532.090942 2030.140015,1535.141479 
	C1991.736572,1573.895020 1945.002075,1597.385498 1892.342285,1609.789307 
	C1851.488281,1619.412354 1809.973267,1621.860840 1768.210938,1619.548096 
	C1744.152588,1618.215576 1720.699341,1613.298584 1698.545776,1603.299072 
	C1697.061157,1602.629028 1695.510132,1602.106445 1694.799683,1601.830078 
	C1660.435425,1640.911011 1619.660645,1671.267090 1577.768066,1700.304199 
	C1574.220703,1702.762939 1570.651978,1705.190552 1566.129150,1708.294189 
	C1566.129150,1724.415527 1566.956055,1741.048340 1565.961426,1757.571411 
	C1563.717285,1794.854858 1555.256958,1830.912109 1537.765991,1863.985229 
	C1515.605957,1905.886719 1480.568115,1932.743652 1434.632446,1944.447998 
	C1412.859009,1949.995605 1392.057373,1945.694214 1373.995850,1932.090210 
	C1345.728760,1910.799561 1329.953613,1882.682007 1329.864746,1846.712036 
	C1329.826416,1831.170288 1334.552246,1816.947388 1344.706421,1805.237305 
	C1361.067261,1786.369629 1377.966553,1768.063965 1397.821411,1752.548828 
	C1430.437866,1727.061157 1464.947388,1704.520752 1500.607910,1683.635254 
	C1501.725220,1682.980957 1502.715454,1682.109741 1504.339233,1680.918335 
	C1502.573120,1673.913330 1500.923218,1666.841797 1498.988525,1659.848999 
	C1497.149170,1653.200928 1495.012085,1646.635498 1492.940552,1639.819092 
	C1417.683472,1669.010620 1360.740967,1645.415649 1317.090088,1581.240479 
	C1316.461792,1581.432251 1315.487061,1581.536621 1314.720215,1581.991455 
	C1276.227295,1604.814209 1235.593872,1605.126343 1194.096924,1592.749023 
	C1183.019775,1589.445068 1172.250488,1584.564331 1161.992065,1579.167725 
	C1137.072876,1566.057983 1127.415649,1552.228516 1120.211548,1521.062134 
	C1116.912720,1522.858765 1113.774536,1524.466919 1110.732544,1526.240234 
	C1072.469604,1548.547241 1034.488770,1571.354370 995.904358,1593.090210 
	C939.806152,1624.691895 880.134216,1647.043457 816.766968,1659.013184 
	C770.100830,1667.828491 723.068726,1671.278809 675.545837,1668.722656 
	C627.127930,1666.118164 579.486267,1658.972290 532.790710,1646.015625 
	C492.586609,1634.860107 455.528198,1617.131348 422.779205,1590.949097 
	C365.353943,1545.038330 340.541168,1484.592773 343.219543,1411.985474 
	C345.882568,1339.794067 375.740753,1279.005615 421.979797,1225.182739 
	C468.791809,1170.692993 527.557068,1137.383545 598.700500,1126.720825 
	C638.710144,1120.724243 678.428528,1121.338867 716.929138,1135.897461 
	C751.702393,1149.046753 778.094788,1171.779297 795.799377,1206.150024 
	C797.538940,1209.991821 798.803589,1212.576294 800.043762,1215.077515 
	C800.019287,1214.994385 799.955811,1214.833130 800.333008,1215.587158 
	C801.163025,1217.947510 801.615845,1219.553711 802.038818,1221.078369 
	C802.008850,1220.996582 801.932739,1220.839966 802.071655,1221.585449 
	C802.464844,1224.290405 802.719055,1226.249878 802.973328,1228.209229 
M1219.118286,1464.084839 
	C1212.306274,1485.005615 1205.505371,1506.026855 1205.045166,1528.221924 
	C1204.826782,1538.750610 1205.972412,1549.511963 1208.133057,1559.825806 
	C1210.144409,1569.426636 1214.519653,1571.419922 1224.203613,1570.605835 
	C1233.540039,1569.820801 1241.273560,1565.370605 1248.702515,1560.162354 
	C1265.651978,1548.279785 1277.894165,1532.010132 1289.823486,1515.527954 
	C1291.256958,1513.547119 1291.453735,1509.868896 1290.828491,1507.319580 
	C1280.196899,1463.974487 1276.114990,1420.025757 1278.080444,1375.473145 
	C1278.172241,1373.394165 1277.784424,1371.294067 1277.468140,1367.275635 
	C1270.736938,1374.535034 1265.069946,1380.109009 1260.016724,1386.192627 
	C1241.226562,1408.814331 1229.015747,1434.965820 1219.118286,1464.084839 
M1482.064209,1765.078979 
	C1466.066650,1779.140381 1449.647217,1792.754761 1434.164185,1807.361450 
	C1406.484741,1833.473999 1397.094238,1866.475220 1399.927368,1903.622559 
	C1400.280151,1908.246948 1400.692505,1912.934692 1404.831787,1916.129517 
	C1411.811523,1915.840698 1417.027832,1912.062744 1421.393921,1907.555176 
	C1428.093872,1900.637939 1434.592651,1893.430542 1440.394287,1885.754883 
	C1465.308838,1852.793701 1481.835571,1815.317749 1497.574585,1777.494995 
	C1500.358643,1770.805054 1501.548828,1763.432861 1503.242310,1756.320312 
	C1503.702393,1754.388062 1503.312134,1752.253418 1503.312134,1748.870239 
	C1495.815430,1754.572266 1489.496948,1759.377930 1482.064209,1765.078979 
z"/>
<path fill="#FCFCFC" opacity="1.000000" stroke="none" 
	d="
M801.932739,1220.839966 
	C801.932739,1220.839966 802.008850,1220.996582 801.689514,1220.294189 
	C800.898743,1218.005615 800.427246,1216.419312 799.955811,1214.833130 
	C799.955811,1214.833130 800.019287,1214.994385 799.924500,1214.147217 
	C799.762207,1210.205811 799.694702,1207.111450 799.627197,1204.017212 
	C801.608093,1191.956421 807.126831,1181.407471 813.660217,1171.305054 
	C826.570557,1151.342163 842.646606,1134.106934 859.988220,1118.009766 
	C884.393005,1095.356567 910.565430,1074.905151 938.963257,1055.337402 
	C940.295166,1054.494873 940.636780,1054.333130 941.614136,1054.162476 
	C944.121155,1052.744751 945.992493,1051.335693 949.019226,1049.056763 
	C946.500732,1048.819824 945.521606,1048.430542 944.827881,1048.721436 
	C943.153870,1049.423584 941.613220,1050.443848 939.507874,1051.557129 
	C938.327393,1052.080444 937.657837,1052.382446 936.988342,1052.684448 
	C911.490967,1059.845825 885.698181,1061.661377 860.222961,1053.745972 
	C819.226196,1041.007812 789.743896,1015.538086 777.307678,973.309937 
	C770.812134,951.253540 772.691040,928.768555 779.999084,907.422424 
	C800.806641,846.645081 840.843018,805.191589 904.353577,789.363525 
	C916.447083,786.349670 929.381470,785.885681 941.941223,785.776306 
	C957.512939,785.640564 967.857788,794.714539 974.631226,808.176575 
	C976.346191,811.584961 977.671509,815.115051 971.622375,817.257202 
	C961.227234,814.717041 952.296814,813.218384 943.188110,819.246338 
	C904.399780,832.027954 880.486084,858.341309 868.383240,895.917603 
	C857.172485,930.724487 857.717407,966.109924 864.548767,1001.563843 
	C867.431396,1016.524231 878.753601,1022.779419 893.035156,1017.020447 
	C900.273071,1014.101807 906.803040,1009.098755 913.133545,1004.346069 
	C920.213745,999.030579 926.705444,992.931274 934.105530,986.616394 
	C933.917358,985.677368 933.662170,983.717041 933.127197,981.836365 
	C925.121155,953.691956 917.352051,925.475891 908.940674,897.452759 
	C903.943848,880.805603 904.942932,865.189026 914.587646,850.623108 
	C922.606323,838.512878 933.049744,828.847534 946.683228,821.913147 
	C954.269592,818.607239 961.241394,817.173828 968.539307,820.378296 
	C970.605591,823.639709 973.875732,826.668884 974.556396,830.197571 
	C983.845093,878.351440 999.243713,924.835449 1012.846069,971.808105 
	C1015.610962,981.356018 1018.581177,990.844543 1021.755371,1001.348755 
	C1024.547729,999.848206 1026.817017,998.837891 1028.868652,997.495239 
	C1065.669800,973.411987 1102.359619,949.196716 1136.275146,921.020752 
	C1142.837036,915.569336 1150.723877,911.514404 1158.451172,907.739319 
	C1163.004150,905.514832 1165.658325,902.907410 1167.313477,898.080139 
	C1183.467407,850.966492 1213.632812,814.570984 1254.210449,786.546021 
	C1278.482056,769.782837 1305.475830,759.923096 1335.007202,757.260498 
	C1342.671387,756.569458 1349.801025,757.739258 1355.630737,762.762024 
	C1359.063599,765.719727 1362.746216,765.548950 1366.692627,766.113098 
	C1376.171997,767.468262 1385.798584,768.664429 1394.919556,771.408447 
	C1403.780151,774.074158 1406.607300,781.115417 1405.131592,790.175598 
	C1398.622314,830.140930 1397.895020,870.386230 1401.381470,910.732544 
	C1404.374023,945.362976 1410.000977,979.453491 1422.250122,1012.129700 
	C1426.095459,1022.387268 1430.608398,1032.466553 1435.677612,1042.177490 
	C1444.614990,1059.298828 1458.635620,1062.615112 1474.719116,1052.062988 
	C1483.824463,1046.089111 1490.561890,1037.813232 1496.337646,1028.807373 
	C1497.765869,1026.580566 1497.948608,1023.153259 1497.748535,1020.345825 
	C1495.687744,991.434570 1493.487183,962.532959 1491.212036,933.637512 
	C1488.884766,904.078918 1486.439941,874.529419 1484.029541,844.977356 
	C1482.594238,827.379578 1481.305542,809.766846 1479.578247,792.197449 
	C1478.957275,785.880493 1480.947388,781.097290 1485.668335,777.287537 
	C1502.979126,763.318237 1522.479492,754.592407 1544.940552,753.920532 
	C1557.832397,753.534851 1561.759644,757.209839 1562.928711,769.882202 
	C1564.236694,784.060120 1565.054443,798.283264 1566.197998,814.035522 
	C1570.753784,810.410522 1574.272217,807.597778 1577.804565,804.802795 
	C1594.533203,791.566040 1612.915039,781.972229 1634.324341,778.913879 
	C1651.231689,776.498596 1667.595215,779.376587 1683.470703,784.692932 
	C1692.805176,787.818665 1699.879639,794.788269 1705.981201,802.427551 
	C1721.535889,821.902588 1733.367676,843.479614 1739.845825,867.553955 
	C1749.612549,903.850708 1758.575562,940.363342 1767.941162,976.768555 
	C1770.510986,986.757874 1773.270508,996.698914 1776.016479,1006.641785 
	C1776.431641,1008.145264 1777.248535,1009.537781 1778.311768,1011.970825 
	C1780.184326,1009.380066 1781.598755,1007.691345 1782.723022,1005.827698 
	C1799.620117,977.820862 1818.208496,951.019714 1839.931152,926.516724 
	C1842.630249,923.472107 1842.276001,920.585815 1842.104736,917.328979 
	C1841.037476,897.040588 1839.514648,876.763428 1839.025391,856.461304 
	C1838.640503,840.497742 1839.468140,824.502136 1839.872681,808.523621 
	C1840.082275,800.245483 1844.181641,793.671448 1850.607056,789.071716 
	C1870.101440,775.116150 1892.135132,769.742310 1915.814453,772.232605 
	C1926.874390,773.395630 1932.078857,781.199341 1931.356689,792.850830 
	C1929.873047,816.785095 1927.694580,840.698181 1926.999023,864.654724 
	C1925.641479,911.410767 1928.236450,957.904175 1939.972534,1003.472107 
	C1943.735840,1018.084167 1949.283325,1032.058350 1958.465820,1044.121216 
	C1962.838013,1049.864746 1968.109009,1055.300903 1973.984131,1059.441284 
	C1984.707397,1066.997925 1996.329102,1066.337158 2006.454224,1058.318359 
	C2014.756958,1051.742554 2022.649292,1044.338989 2029.428833,1036.221191 
	C2039.876709,1023.710754 2049.169189,1010.239136 2059.048584,997.248840 
	C2063.866455,990.913391 2068.903320,984.744446 2074.350830,977.855774 
	C2073.627686,975.794922 2072.653564,973.026062 2071.684570,970.255310 
	C2058.148682,931.546143 2066.108154,894.515625 2099.619629,869.236389 
	C2134.847412,842.662781 2174.081543,825.371582 2218.538086,821.653442 
	C2232.906494,820.451782 2246.396729,823.521729 2258.167236,832.331421 
	C2260.552490,834.116699 2262.923828,836.078308 2264.776855,838.380737 
	C2267.701904,842.014526 2266.945312,845.312927 2262.777100,847.278748 
	C2260.098877,848.541809 2257.145508,849.423096 2254.220947,849.929382 
	C2230.880615,853.970154 2209.755127,863.528381 2189.873047,875.976379 
	C2172.270996,886.996704 2159.988770,902.090820 2154.787109,922.687988 
	C2151.434326,935.964783 2148.283936,949.190002 2148.185547,962.968750 
	C2148.154053,967.393555 2148.584717,971.193481 2152.666748,974.369934 
	C2157.196533,977.894836 2158.802979,983.159668 2156.175293,988.711792 
	C2154.306396,992.660767 2155.799805,995.639709 2157.768799,998.854370 
	C2168.429443,1016.261963 2184.117676,1025.734741 2204.171143,1028.121216 
	C2222.750244,1030.332275 2240.666748,1026.833618 2258.214844,1021.052856 
	C2298.962646,1007.629578 2333.135742,983.767761 2363.469238,954.031433 
	C2377.558350,940.219666 2393.370605,929.671631 2412.789551,925.125061 
	C2426.903076,921.820740 2441.097900,920.811218 2455.372314,924.008179 
	C2468.895020,927.036743 2472.506836,936.195679 2464.735107,947.654541 
	C2463.619385,949.299683 2462.333008,950.872559 2460.912109,952.260620 
	C2419.770264,992.454834 2374.084229,1025.914062 2320.007568,1046.806030 
	C2285.741943,1060.044067 2250.456299,1067.102661 2213.488770,1064.382812 
	C2181.129883,1062.002075 2151.737305,1051.652710 2125.265137,1032.928833 
	C2123.668945,1031.799805 2122.001953,1030.770874 2119.909424,1029.393555 
	C2116.134766,1032.403809 2112.558350,1035.309204 2108.926270,1038.143921 
	C2078.589600,1061.821167 2045.312988,1079.451294 2007.276489,1087.081665 
	C1989.511963,1090.645508 1971.645996,1091.303955 1953.624878,1088.592529 
	C1925.074463,1084.296387 1902.302124,1070.298950 1885.469727,1047.250610 
	C1876.736084,1035.291626 1869.766602,1022.044312 1861.658691,1008.822144 
	C1859.446777,1010.650940 1856.650024,1012.877747 1853.946655,1015.212830 
	C1840.014282,1027.247192 1825.179077,1037.950439 1808.183960,1045.261230 
	C1793.300293,1051.663696 1777.878296,1055.091919 1761.477173,1053.176514 
	C1739.040894,1050.556274 1722.987671,1037.584839 1709.123047,1021.202698 
	C1698.854126,1009.069153 1692.916016,994.600769 1687.836060,979.683167 
	C1675.554321,943.618225 1669.359741,906.165710 1661.828735,868.990295 
	C1659.201416,856.020874 1655.646240,843.019104 1650.631592,830.805237 
	C1643.078247,812.408203 1634.295166,811.843445 1622.592896,828.045715 
	C1603.376709,854.651550 1591.808228,884.626343 1584.291626,916.339050 
	C1583.604126,919.239746 1583.448364,922.763611 1581.677490,924.819763 
	C1575.733032,931.721802 1576.963257,939.394409 1577.635620,947.391541 
	C1580.343262,979.593262 1582.558960,1011.837219 1585.399170,1044.026367 
	C1586.035034,1051.231689 1583.651367,1056.247314 1578.378784,1060.521362 
	C1568.651733,1068.406250 1557.367554,1073.222656 1545.715820,1077.396362 
	C1538.845825,1079.857300 1532.005371,1082.437256 1525.292847,1085.295044 
	C1500.250610,1095.956665 1474.429932,1101.573853 1447.353149,1095.662476 
	C1409.894531,1087.484619 1380.057495,1067.679932 1358.846069,1035.417114 
	C1356.847290,1032.376953 1354.827271,1029.350586 1352.565552,1025.938477 
	C1350.889893,1026.718018 1349.370361,1027.275757 1347.999390,1028.084839 
	C1317.505859,1046.080688 1284.584229,1049.828369 1250.519287,1043.106567 
	C1235.953857,1040.232300 1221.501709,1035.506470 1207.823486,1029.683472 
	C1180.663330,1018.120911 1170.313110,1007.198547 1157.304932,979.952820 
	C1117.401733,1010.050049 1077.689575,1040.003174 1037.309082,1070.460327 
	C1038.550049,1080.169434 1040.083252,1089.981323 1041.009766,1099.850220 
	C1043.264160,1123.862793 1043.170776,1147.746094 1036.245850,1171.182861 
	C1025.906006,1206.177124 1004.147400,1231.220703 970.980469,1246.339355 
	C946.368103,1257.558472 920.129517,1261.722412 893.459656,1263.885254 
	C889.145447,1264.235107 884.770142,1263.957397 880.479736,1264.456543 
	C851.952209,1267.775635 830.129700,1255.492920 811.741211,1235.138794 
	C809.959961,1233.167236 808.406860,1230.989624 806.121338,1227.788818 
	C804.307495,1224.726562 803.120117,1222.783325 801.932739,1220.839966 
M1240.344971,965.757141 
	C1240.929443,977.997681 1240.499756,990.396545 1242.378662,1002.435059 
	C1244.320801,1014.879089 1251.215332,1018.820312 1263.339478,1015.115356 
	C1270.807983,1012.833191 1278.020752,1008.909912 1284.555420,1004.538208 
	C1299.709229,994.400452 1310.335205,979.764343 1321.563477,965.718323 
	C1325.937378,960.246643 1326.945923,955.275879 1325.237549,948.443970 
	C1316.079224,911.820251 1312.199951,874.539185 1312.591064,836.800171 
	C1312.667847,829.395996 1312.602173,821.990417 1312.602173,814.546082 
	C1311.765625,814.722473 1311.013062,814.674011 1310.558716,815.018616 
	C1309.505127,815.817688 1308.588379,816.799133 1307.628906,817.719971 
	C1294.804688,830.026855 1284.277954,844.109619 1275.780396,859.670654 
	C1257.935913,892.347656 1246.441528,927.202698 1240.344971,965.757141 
M943.625122,1196.417236 
	C952.109009,1179.614258 954.536621,1161.598633 955.174377,1142.483521 
	C936.002686,1155.102661 875.456482,1219.757690 870.262573,1233.613892 
	C875.031738,1234.040405 879.482361,1234.954468 883.880127,1234.747192 
	C910.448853,1233.494629 929.006470,1219.278809 943.625122,1196.417236 
z"/>
<path fill="#FDFDFD" opacity="1.000000" stroke="none" 
	d="
M523.008240,631.014282 
	C532.361572,677.364014 537.280090,723.327393 535.593445,769.796204 
	C533.488159,827.797424 521.862305,883.574402 491.821838,933.996033 
	C450.889496,1002.699341 389.971283,1043.799194 311.012390,1053.567993 
	C209.974060,1066.068848 131.190048,1025.656128 73.343025,943.251221 
	C46.505333,905.020020 30.069675,862.308350 24.773485,815.802124 
	C21.674339,788.588257 22.760094,761.204895 26.290417,734.046814 
	C32.209652,688.511169 44.341206,644.772461 65.502419,603.784851 
	C85.666840,564.727966 112.722298,531.398315 147.684708,504.597931 
	C150.038605,502.793579 152.038147,500.529694 154.223541,498.502197 
	C158.365173,494.659729 162.140549,490.286591 166.731506,487.085327 
	C213.818375,454.251648 265.558258,434.812897 323.524811,436.025055 
	C394.343170,437.505981 448.392731,469.174927 485.209229,529.712097 
	C504.096039,560.767639 515.218262,594.850952 523.008240,631.014282 
M358.826599,482.046844 
	C347.768127,474.295837 335.827209,468.721680 322.299866,466.842529 
	C310.973572,465.269135 298.770081,467.723724 290.580322,473.508636 
	C292.818420,477.412720 300.129822,478.367401 297.532898,485.239532 
	C291.768372,487.796600 286.307739,486.131439 281.029144,484.081451 
	C277.235565,482.608246 274.417267,482.939575 271.059601,485.597046 
	C212.684326,531.799622 165.182114,586.746704 134.597778,655.241089 
	C118.860008,690.486267 108.696487,727.364563 106.216133,765.927612 
	C101.927673,832.601929 120.341766,893.704102 153.952789,950.666565 
	C164.505173,968.550354 177.621857,984.505981 193.270920,998.267395 
	C230.276566,1030.809570 271.156616,1036.418091 315.492523,1014.962524 
	C344.667572,1000.843750 367.804535,979.618408 386.637543,953.556213 
	C406.754486,925.717407 420.200500,894.622009 429.925232,861.879089 
	C445.828217,808.334351 450.423981,753.362793 449.103027,697.831238 
	C448.050446,653.581909 440.572235,610.436401 424.245972,569.032471 
	C410.614990,534.463989 389.977936,505.215759 358.826599,482.046844 
z"/>
<path fill="#FAFAFA" opacity="1.000000" stroke="none" 
	d="
M141.782303,1192.094849 
	C160.973236,1465.471436 264.056458,1702.100098 454.611298,1899.313599 
	C599.578430,2049.346436 774.663330,2148.477051 976.945435,2199.178711 
	C1042.304443,2215.560547 1108.805298,2225.064209 1176.219849,2228.561768 
	C1231.588135,2231.433838 1286.830322,2230.633789 1341.941650,2225.434814 
	C1472.183472,2213.148682 1596.385864,2178.457031 1713.693726,2120.655762 
	C1930.695801,2013.732056 2095.362305,1852.528687 2208.150635,1638.642334 
	C2256.228271,1547.470459 2290.775635,1451.215820 2311.097168,1350.045776 
	C2321.336182,1299.071411 2328.248047,1247.616821 2332.450928,1194.814819 
	C2333.395020,1193.933472 2333.729980,1193.969849 2334.064941,1194.006226 
	C2334.985596,1227.039185 2332.998535,1259.961304 2329.578125,1292.777100 
	C2324.396240,1342.490479 2316.343994,1391.723755 2304.472412,1440.338013 
	C2265.521484,1599.843140 2194.294189,1743.288696 2090.172119,1870.187256 
	C1954.857544,2035.101562 1785.607056,2151.067871 1583.481812,2218.984131 
	C1513.848877,2242.381592 1442.314087,2257.582520 1369.401489,2266.413574 
	C1298.732300,2274.972412 1227.878296,2277.008057 1156.913696,2271.580322 
	C923.784485,2253.749756 715.829224,2171.621582 535.596069,2022.800293 
	C364.618286,1881.621216 246.438492,1704.322754 183.060898,1491.249390 
	C166.421326,1435.307617 154.652710,1378.355469 147.517914,1320.401733 
	C142.341248,1278.353149 139.000427,1236.237915 140.295105,1192.961670 
	C140.901047,1192.074219 141.782303,1192.094849 141.782303,1192.094849 
z"/>
<path fill="#FBFBFB" opacity="1.000000" stroke="none" 
	d="
M1801.926270,237.987183 
	C1744.459473,202.427765 1683.965942,174.544388 1621.680054,150.901276 
	C1561.898804,128.208817 1500.379395,111.132103 1437.294189,99.507942 
	C1397.262695,92.131660 1357.065552,86.179688 1316.610107,83.161827 
	C1279.121094,80.365257 1241.354126,79.718040 1203.747314,80.353462 
	C1048.128418,82.982864 899.721008,117.895264 758.227722,182.437286 
	C673.293518,221.179886 594.518616,270.073486 520.959351,327.467682 
	C518.778687,329.169159 516.352417,330.555847 514.040649,332.089325 
	C513.462036,331.534821 512.883362,330.980316 512.304749,330.425842 
	C513.902161,328.354340 515.223267,325.973938 517.140015,324.259399 
	C535.265747,308.045837 553.003723,291.351257 571.769287,275.908112 
	C706.038757,165.410736 858.961182,93.710732 1028.957886,58.539211 
	C1127.407593,38.170418 1227.056519,32.832176 1327.263672,40.362087 
	C1426.085205,47.787895 1522.099609,68.774620 1615.242065,102.682816 
	C1680.821655,126.556808 1743.163940,157.082581 1803.012207,193.002975 
	C1860.658813,227.601990 1914.090576,267.839264 1964.100342,312.509277 
	C2007.139160,350.952698 2046.406982,393.157562 2082.528809,438.263214 
	C2126.203125,492.799957 2163.559814,551.398071 2195.786865,613.292114 
	C2203.694092,628.478210 2210.234375,644.375916 2217.676758,660.540588 
	C2213.263184,661.780884 2212.645752,659.117981 2211.340576,656.998535 
	C2197.209717,634.050110 2183.383301,610.900940 2168.710938,588.301880 
	C2140.178467,544.354614 2107.813721,503.333771 2073.294434,463.911591 
	C2029.248535,413.610168 1980.804932,368.006104 1928.837036,326.072693 
	C1888.855713,293.811279 1846.712158,264.624268 1801.926270,237.987183 
z"/>
<path fill="#FDFDFD" opacity="1.000000" stroke="none" 
	d="
M633.723999,775.925476 
	C635.239319,776.077332 635.913391,776.100525 636.561401,776.242432 
	C656.279480,780.560730 658.959229,784.247314 657.407288,804.140564 
	C656.380737,817.299316 655.601562,830.477417 654.630798,844.841614 
	C657.854736,843.344788 659.944397,842.524475 661.892456,841.447937 
	C693.940491,823.738464 728.639282,815.276367 764.797424,811.901550 
	C770.768066,811.344238 776.740662,810.624329 782.726074,810.449219 
	C793.626587,810.130249 805.525696,818.614014 809.113464,828.694153 
	C810.422485,832.371887 808.857544,834.790222 805.755066,835.813782 
	C802.017212,837.046936 798.032349,837.772156 794.100647,838.136353 
	C773.759338,840.020264 753.877441,843.799133 735.078735,852.097900 
	C703.593933,865.996887 681.014587,888.457703 670.771118,921.704590 
	C668.091370,930.402283 661.701660,931.192444 654.343628,933.436035 
	C655.195862,948.698425 655.724304,963.935547 656.965393,979.114380 
	C659.137085,1005.674438 661.570312,1032.216797 664.290833,1058.725708 
	C665.010742,1065.740479 663.203674,1071.039673 657.855042,1075.443848 
	C642.050720,1088.457153 624.071045,1096.739746 603.805115,1099.447266 
	C593.398682,1100.837646 584.960205,1097.369263 583.667786,1083.421265 
	C579.857849,1042.305664 574.158875,1001.356384 570.768677,960.212708 
	C566.279053,905.726196 564.739380,851.108521 568.047913,796.427979 
	C568.586426,787.527649 573.123901,783.100342 580.511292,780.410889 
	C594.542664,775.302551 609.198181,774.919373 623.897766,775.183044 
	C626.891785,775.236755 629.879822,775.620544 633.723999,775.925476 
z"/>
<path fill="#FCFCFC" opacity="1.000000" stroke="none" 
	d="
M1915.407715,594.349976 
	C1916.886230,599.890991 1915.617310,603.403870 1911.303589,606.157227 
	C1894.028809,617.183838 1875.843872,625.952332 1855.334595,628.880188 
	C1843.121704,630.623779 1838.315186,627.319824 1836.640137,615.575134 
	C1834.479370,600.423889 1832.745239,585.204895 1831.191284,569.977905 
	C1830.624023,564.419983 1831.100098,558.755615 1831.100098,552.168518 
	C1838.082520,551.038452 1844.188599,549.751160 1850.361816,549.108826 
	C1866.962402,547.381653 1883.579712,546.770691 1900.128662,549.790710 
	C1901.763184,550.089050 1903.412109,550.365173 1905.005981,550.820984 
	C1917.968750,554.527588 1920.417236,558.836304 1917.095825,571.943604 
	C1915.297852,579.038269 1913.077393,586.100037 1915.407715,594.349976 
z"/>
<path fill="#F1F1F1" opacity="1.000000" stroke="none" 
	d="
M908.408447,583.339661 
	C895.662720,586.733521 890.631775,592.583496 890.331360,604.524536 
	C890.038147,616.177185 890.256897,627.842834 890.251648,639.502747 
	C890.250244,642.761353 890.251465,646.019958 890.251465,649.652344 
	C886.043762,649.652344 882.857178,649.652344 878.492554,649.652344 
	C878.492554,646.048157 878.504456,642.810181 878.490417,639.572327 
	C878.437012,627.247742 878.727722,614.908569 878.218445,602.602661 
	C877.698425,590.038879 870.014099,582.744751 858.829712,583.193420 
	C847.642761,583.642151 840.062561,591.464600 839.813171,603.400146 
	C839.562622,615.388000 839.751038,627.385132 839.747559,639.378174 
	C839.746582,642.625366 839.747375,645.872498 839.747375,649.590576 
	C835.516418,649.590576 832.302307,649.590576 828.412842,649.590576 
	C828.412842,624.799561 828.412842,599.944092 828.412842,574.338196 
	C831.472168,574.338196 834.923462,574.338196 839.052124,574.338196 
	C839.453308,576.387695 839.933105,578.838928 840.426575,581.359924 
	C859.182678,567.760620 871.264343,568.876099 886.544617,585.622375 
	C888.859558,583.482361 891.106201,581.213501 893.548035,579.179016 
	C910.384583,565.151001 934.905090,573.206970 940.089172,594.507568 
	C940.871277,597.721252 941.405762,601.079773 941.437073,604.377136 
	C941.578979,619.304688 941.499146,634.234375 941.499146,649.609863 
	C937.303650,649.609863 934.087097,649.609863 929.587524,649.609863 
	C929.587524,644.069702 929.588745,638.551697 929.587280,633.033691 
	C929.584656,623.372620 929.859802,613.701355 929.509521,604.052856 
	C929.021667,590.615234 922.741821,584.399109 908.408447,583.339661 
z"/>
<path fill="#EFEFEF" opacity="1.000000" stroke="none" 
	d="
M1216.778687,639.150513 
	C1207.488770,628.057251 1206.102417,615.619629 1208.149048,602.787659 
	C1212.470825,575.693115 1243.450195,563.169006 1265.844604,579.183594 
	C1267.094604,580.077454 1268.298950,581.035156 1270.953003,583.044800 
	C1272.191772,569.122986 1271.111450,556.703308 1271.776123,543.631470 
	C1275.431763,543.631470 1278.838745,543.631470 1282.892090,543.631470 
	C1282.892090,578.821350 1282.892090,613.891663 1282.892090,649.647461 
	C1279.503052,649.817871 1276.311401,649.978333 1272.471069,650.171387 
	C1271.888428,647.115662 1271.374390,644.418823 1270.815063,641.485168 
	C1248.462280,655.444885 1233.377563,654.832886 1216.778687,639.150513 
M1257.905273,637.828247 
	C1270.860229,628.707031 1275.400757,614.830872 1270.166870,600.356018 
	C1266.170654,589.303894 1257.510132,583.154785 1245.936890,583.152466 
	C1234.184814,583.150146 1224.148560,589.814331 1220.921631,600.883728 
	C1217.602661,612.268982 1218.244385,623.449097 1226.987183,632.596924 
	C1235.306030,641.301086 1245.506714,642.029114 1257.905273,637.828247 
z"/>
<path fill="#F3F3F3" opacity="1.000000" stroke="none" 
	d="
M1026.815430,649.833374 
	C1023.064880,650.016235 1020.098694,650.016235 1015.374634,650.016235 
	C1029.989136,615.544983 1044.151489,582.140137 1058.291260,548.788696 
	C1063.359863,548.788696 1067.641357,548.788696 1072.883789,548.788696 
	C1086.971436,581.946472 1101.108887,615.221680 1115.629639,649.398804 
	C1110.971313,649.398804 1107.223145,649.398804 1102.657104,649.398804 
	C1099.423462,641.904663 1095.888916,634.078979 1092.686157,626.119873 
	C1091.303101,622.682861 1089.628662,620.586731 1085.519775,620.630737 
	C1070.896362,620.787292 1056.270264,620.691772 1041.462524,620.691772 
	C1036.698486,630.643372 1032.149048,640.146912 1026.815430,649.833374 
M1064.100586,565.038208 
	C1058.001221,579.669312 1051.901855,594.300476 1045.586426,609.449829 
	C1059.271729,609.449829 1071.716675,609.449829 1084.710693,609.449829 
	C1084.359131,607.587158 1084.331543,606.254822 1083.856812,605.107544 
	C1078.643066,592.509338 1073.401855,579.921875 1068.034912,567.388550 
	C1067.441772,566.003418 1066.020386,564.972961 1064.100586,565.038208 
z"/>
<path fill="#F2F2F2" opacity="1.000000" stroke="none" 
	d="
M1393.053955,564.464966 
	C1375.789551,578.160828 1370.682617,599.311584 1379.357788,618.613159 
	C1385.274292,631.776794 1395.930054,638.188660 1409.804199,639.588928 
	C1423.752930,640.996643 1435.418457,636.744202 1443.438354,624.598755 
	C1444.350342,623.217957 1445.186279,621.787109 1446.269043,620.037720 
	C1449.766479,620.037720 1453.328369,620.037720 1457.568604,620.037720 
	C1457.374268,621.390259 1457.463989,622.642700 1457.009888,623.650024 
	C1447.878662,643.902954 1427.726318,654.191345 1404.358521,650.597717 
	C1382.505493,647.237000 1366.842163,630.970520 1364.259033,608.386475 
	C1363.583496,602.481140 1363.592285,596.366943 1364.267822,590.460938 
	C1366.792725,568.388123 1382.753418,551.373230 1403.361694,548.218079 
	C1427.392334,544.538879 1447.811890,554.833984 1457.014160,575.306946 
	C1457.396484,576.157471 1457.439087,577.160706 1457.842285,579.031372 
	C1454.028809,579.200195 1450.568359,579.353455 1447.347778,579.496033 
	C1435.810547,560.459961 1418.883789,553.155151 1393.053955,564.464966 
z"/>
<path fill="#F1F1F1" opacity="1.000000" stroke="none" 
	d="
M755.749390,612.000366 
	C755.749390,624.938843 755.749390,636.877991 755.749390,649.438599 
	C751.566711,649.438599 748.104858,649.438599 744.369507,649.438599 
	C744.100098,646.654175 743.848938,644.058655 743.597900,641.463745 
	C742.893982,641.503418 741.999329,641.279968 741.678711,641.611511 
	C729.191406,654.523682 707.904419,653.259888 696.412659,645.610718 
	C682.515381,636.360413 676.270081,617.304810 681.365906,599.376709 
	C688.792297,573.249512 718.032837,563.628174 739.478455,580.252075 
	C740.465027,581.016724 741.481018,581.743347 743.206238,583.024719 
	C743.663086,579.701538 743.999023,577.258118 744.417908,574.211182 
	C747.845642,574.211182 751.302673,574.211182 755.749390,574.211182 
	C755.749390,586.595825 755.749390,598.798462 755.749390,612.000366 
M738.319824,631.075928 
	C745.771912,620.637390 746.327698,609.280823 741.509277,597.913452 
	C735.360596,583.407593 716.604919,578.479614 703.532715,587.364136 
	C690.151978,596.458374 687.330811,617.885864 697.796753,630.930847 
	C707.578186,643.122681 724.468201,643.697632 738.319824,631.075928 
z"/>
<path fill="#F3F3F3" opacity="1.000000" stroke="none" 
	d="
M1630.386719,573.858215 
	C1658.997192,566.305176 1682.521118,586.726318 1679.657837,615.999573 
	C1659.057739,615.999573 1638.309570,615.999573 1617.550537,615.999573 
	C1617.837769,627.590454 1623.773560,636.431030 1633.871826,638.996460 
	C1645.546265,641.962341 1654.924561,641.891602 1665.428101,628.094849 
	C1668.869873,628.094849 1672.469971,628.094849 1677.551758,628.094849 
	C1672.730835,639.648560 1665.459351,647.044067 1654.113037,649.920105 
	C1632.316162,655.445068 1612.255371,645.085266 1606.014526,625.334229 
	C1599.947632,606.134033 1606.865356,581.101196 1630.386719,573.858215 
M1622.373291,605.655823 
	C1637.203369,605.655823 1652.033569,605.655823 1668.819458,605.655823 
	C1665.926758,600.013855 1664.437622,595.564209 1661.707153,592.089966 
	C1655.038208,583.604187 1645.777954,581.728882 1635.640259,583.841614 
	C1626.363403,585.775024 1620.593140,591.758911 1617.566406,600.615417 
	C1616.508667,603.710693 1616.553589,605.890686 1622.373291,605.655823 
z"/>
<path fill="#F2F2F2" opacity="1.000000" stroke="none" 
	d="
M1504.232788,572.185791 
	C1517.244263,572.976013 1519.756470,573.956360 1531.118774,582.593384 
	C1531.744995,579.596741 1532.288940,576.993530 1532.909790,574.022949 
	C1536.297852,574.022949 1539.547485,574.022949 1543.442871,574.022949 
	C1543.442871,599.114624 1543.442871,624.179810 1543.442871,649.656372 
	C1539.863770,649.656372 1536.648560,649.656372 1532.689453,649.656372 
	C1532.333008,646.882019 1531.982544,644.155151 1531.648682,641.556641 
	C1526.198364,644.452637 1521.311890,648.176270 1515.807983,649.775146 
	C1493.863647,656.150269 1473.839600,643.987183 1469.130615,621.490295 
	C1465.854614,605.839294 1469.161011,591.705261 1481.428101,580.601929 
	C1487.589966,575.024780 1495.231934,572.848328 1504.232788,572.185791 
M1482.004761,599.861206 
	C1481.424683,605.759399 1479.862061,611.760864 1480.468628,617.534424 
	C1481.745605,629.689453 1491.192871,638.809814 1502.376587,640.132446 
	C1515.812256,641.721375 1525.785278,636.270874 1530.415649,624.458618 
	C1533.697266,616.086731 1533.671265,607.499695 1530.411133,599.135254 
	C1526.277710,588.530396 1517.707642,582.972290 1506.364746,583.123108 
	C1495.275757,583.270630 1487.455933,588.563599 1482.004761,599.861206 
z"/>
<path fill="#EFEFEF" opacity="1.000000" stroke="none" 
	d="
M662.768860,606.234741 
	C645.649719,606.254578 629.411621,606.254578 612.321167,606.254578 
	C612.321167,621.025574 612.321167,634.876221 612.321167,649.395264 
	C608.046936,649.395264 604.632629,649.395264 600.628479,649.395264 
	C600.628479,616.117371 600.628479,582.963135 600.628479,549.146667 
	C624.665222,549.146667 648.478577,549.146667 673.114868,549.146667 
	C673.363403,552.304016 673.611633,555.456848 673.960449,559.887756 
	C653.277649,559.887756 633.162170,559.887756 612.588318,559.887756 
	C612.588318,571.934937 612.588318,582.759338 612.588318,594.520264 
	C630.366455,594.520264 647.855225,594.520264 666.003784,594.520264 
	C666.009216,599.233643 669.657654,603.476318 662.768860,606.234741 
z"/>
<path fill="#F1F1F1" opacity="1.000000" stroke="none" 
	d="
M1193.507080,606.592651 
	C1193.508545,621.419983 1193.508545,635.318909 1193.508545,649.627319 
	C1189.217407,649.627319 1186.031860,649.627319 1181.741699,649.627319 
	C1181.741699,644.142944 1181.750854,638.901367 1181.739624,633.659790 
	C1181.719727,624.340942 1181.964355,615.011047 1181.595825,605.705750 
	C1181.034180,591.523254 1172.820435,583.088440 1160.220581,583.169556 
	C1147.153198,583.253662 1138.092529,592.315125 1137.791626,606.049072 
	C1137.551147,617.027283 1137.746704,628.015015 1137.748413,638.998535 
	C1137.749023,642.267456 1137.748535,645.536316 1137.748535,649.431152 
	C1133.562256,649.431152 1130.146606,649.431152 1126.227417,649.431152 
	C1126.227417,624.295593 1126.227417,599.437683 1126.227417,574.085815 
	C1129.816895,574.085815 1133.355957,574.085815 1137.252075,574.085815 
	C1137.593872,576.894958 1137.904907,579.451782 1138.220337,582.043518 
	C1139.065674,581.858032 1139.904541,581.933167 1140.292847,581.550781 
	C1150.129395,571.864441 1161.741943,569.532776 1174.304688,574.534363 
	C1186.699097,579.469055 1192.154663,589.819580 1193.411743,602.671631 
	C1193.508667,603.662720 1193.477417,604.666382 1193.507080,606.592651 
z"/>
<path fill="#F3F3F3" opacity="1.000000" stroke="none" 
	d="
M1568.508545,592.300415 
	C1568.344727,589.087463 1568.181396,586.832947 1567.989868,584.189392 
	C1563.908936,583.998413 1560.321655,583.830566 1556.108887,583.633423 
	C1555.937012,580.664551 1555.770386,577.784424 1555.559692,574.146545 
	C1559.818481,573.818726 1563.615845,573.526428 1567.293579,573.243347 
	C1572.237671,547.312134 1577.007690,542.294434 1597.490479,542.159729 
	C1597.706665,545.215637 1597.927856,548.342773 1598.161011,551.639282 
	C1592.651367,554.425232 1585.058105,552.855774 1582.499390,559.490479 
	C1580.921509,563.581909 1580.817627,568.241760 1579.869385,573.696533 
	C1586.700195,573.696533 1591.916992,573.696533 1597.576294,573.696533 
	C1597.576294,577.306458 1597.576294,580.099792 1597.576294,583.448669 
	C1591.928467,583.729858 1586.706299,583.989929 1580.695312,584.289185 
	C1580.695312,606.066101 1580.695312,627.555298 1580.695312,649.535156 
	C1576.410767,649.535156 1572.937256,649.535156 1568.509033,649.535156 
	C1568.509033,630.435669 1568.509033,611.847229 1568.508545,592.300415 
z"/>
<path fill="#FAFAFA" opacity="1.000000" stroke="none" 
	d="
M786.541382,646.607117 
	C783.717285,652.319397 779.669128,649.256287 775.734131,649.691528 
	C775.734131,624.330994 775.734131,599.491760 775.734131,574.154541 
	C779.125854,574.154541 782.327942,574.154541 786.032593,574.154541 
	C786.405151,578.064758 786.770386,581.898132 787.219360,586.609497 
	C791.683594,582.851379 795.187683,578.914551 799.539001,576.512878 
	C803.994446,574.053833 809.279785,573.098450 815.209473,571.154602 
	C815.209473,576.126404 815.209473,579.590515 815.209473,583.033752 
	C795.454102,587.589905 787.336365,597.403931 786.686707,617.847168 
	C786.391602,627.134888 786.616516,636.439209 786.541382,646.607117 
z"/>
<path fill="#BBBBBB" opacity="1.000000" stroke="none" 
	d="
M2334.334961,1193.244995 
	C2333.729980,1193.969849 2333.395020,1193.933472 2332.558838,1193.961914 
	C2332.294922,1184.862549 2332.532471,1175.698242 2332.769775,1166.533936 
	C2333.381592,1166.538452 2333.993408,1166.542969 2334.605225,1166.547485 
	C2334.605225,1175.192871 2334.605225,1183.838379 2334.334961,1193.244995 
z"/>
<path fill="#BBBBBB" opacity="1.000000" stroke="none" 
	d="
M141.980011,1191.175293 
	C141.782303,1192.094849 140.901047,1192.074219 140.461945,1192.036133 
	C140.022842,1182.873657 140.022842,1173.749268 140.022842,1164.624756 
	C140.204163,1164.603516 140.385498,1164.582275 140.566818,1164.560913 
	C141.103775,1173.125854 141.640732,1181.690674 141.980011,1191.175293 
z"/>
<path fill="#BBBBBB" opacity="1.000000" stroke="none" 
	d="
M969.084229,819.474670 
	C961.241394,817.173828 954.269592,818.607239 946.732483,821.211853 
	C945.325867,820.019287 944.612671,819.477600 943.899475,818.935913 
	C952.296814,813.218384 961.227234,814.717041 970.862305,817.302368 
	C970.882812,817.932190 970.256042,818.251648 969.084229,819.474670 
z"/>
<path fill="#BBBBBB" opacity="1.000000" stroke="none" 
	d="
M2226.108154,683.094604 
	C2223.049316,675.515747 2216.506592,669.554932 2215.895996,660.785767 
	C2221.946533,665.624817 2223.375000,673.094849 2226.642090,680.648376 
	C2226.506592,682.203308 2226.307373,682.648987 2226.108154,683.094604 
z"/>
<path fill="#BBBBBB" opacity="1.000000" stroke="none" 
	d="
M499.585907,341.593903 
	C503.220398,337.206543 506.712769,332.646576 513.475403,329.986816 
	C512.301392,337.692963 505.814484,339.144287 501.269135,342.857788 
	C500.076752,342.305359 499.831329,341.949646 499.585907,341.593903 
z"/>
<path fill="#313131" opacity="1.000000" stroke="none" 
	d="
M799.189270,1204.241577 
	C799.694702,1207.111450 799.762207,1210.205811 799.948975,1214.230347 
	C798.803589,1212.576294 797.538940,1209.991821 796.243896,1206.687744 
	C797.059387,1205.467285 797.905396,1204.966675 799.189270,1204.241577 
z"/>
<path fill="#313131" opacity="1.000000" stroke="none" 
	d="
M2227.229492,681.245422 
	C2228.403320,681.755981 2229.241455,682.712097 2229.637939,683.825378 
	C2229.897705,684.555115 2229.518066,685.512451 2229.288086,687.622986 
	C2227.784668,685.856018 2226.944824,684.868652 2226.106445,683.487915 
	C2226.307373,682.648987 2226.506592,682.203308 2227.229492,681.245422 
z"/>
<path fill="#313131" opacity="1.000000" stroke="none" 
	d="
M802.071655,1221.585449 
	C803.120117,1222.783325 804.307495,1224.726562 805.609619,1227.343750 
	C805.266724,1228.061768 804.809082,1228.106201 803.662415,1228.179932 
	C802.719055,1226.249878 802.464844,1224.290405 802.071655,1221.585449 
z"/>
<path fill="#BBBBBB" opacity="1.000000" stroke="none" 
	d="
M496.769043,346.896149 
	C496.044830,347.178741 495.320587,347.461365 494.596375,347.743958 
	C494.619293,347.218170 494.642212,346.692383 495.460144,346.237610 
	C496.255157,346.308655 496.769043,346.896149 496.769043,346.896149 
z"/>
<path fill="#BBBBBB" opacity="1.000000" stroke="none" 
	d="
M495.993530,346.019043 
	C496.042847,345.145569 496.353729,344.561707 497.569824,344.186707 
	C498.766113,344.640442 499.057220,344.885315 499.348389,345.130249 
	C498.817139,345.590179 498.285919,346.050110 497.261871,346.703094 
	C496.769043,346.896149 496.255157,346.308655 495.993530,346.019043 
z"/>
<path fill="#BBBBBB" opacity="1.000000" stroke="none" 
	d="
M498.053406,344.011108 
	C497.971008,343.069702 498.310211,342.512787 499.117676,341.774902 
	C499.831329,341.949646 500.076752,342.305359 500.635437,343.229492 
	C500.695435,344.203278 500.372742,344.542664 499.664490,344.973145 
	C499.057220,344.885315 498.766113,344.640442 498.053406,344.011108 
z"/>
<path fill="#2B2B2B" opacity="1.000000" stroke="none" 
	d="
M1219.390259,1463.342773 
	C1229.015747,1434.965820 1241.226562,1408.814331 1260.016724,1386.192627 
	C1265.069946,1380.109009 1270.736938,1374.535034 1277.468140,1367.275635 
	C1277.784424,1371.294067 1278.172241,1373.394165 1278.080444,1375.473145 
	C1276.114990,1420.025757 1280.196899,1463.974487 1290.828491,1507.319580 
	C1291.453735,1509.868896 1291.256958,1513.547119 1289.823486,1515.527954 
	C1277.894165,1532.010132 1265.651978,1548.279785 1248.702515,1560.162354 
	C1241.273560,1565.370605 1233.540039,1569.820801 1224.203613,1570.605835 
	C1214.519653,1571.419922 1210.144409,1569.426636 1208.133057,1559.825806 
	C1205.972412,1549.511963 1204.826782,1538.750610 1205.045166,1528.221924 
	C1205.505371,1506.026855 1212.306274,1485.005615 1219.390259,1463.342773 
z"/>
<path fill="#2C2C2C" opacity="1.000000" stroke="none" 
	d="
M1482.621338,1764.631226 
	C1489.496948,1759.377930 1495.815430,1754.572266 1503.312134,1748.870239 
	C1503.312134,1752.253418 1503.702393,1754.388062 1503.242310,1756.320312 
	C1501.548828,1763.432861 1500.358643,1770.805054 1497.574585,1777.494995 
	C1481.835571,1815.317749 1465.308838,1852.793701 1440.394287,1885.754883 
	C1434.592651,1893.430542 1428.093872,1900.637939 1421.393921,1907.555176 
	C1417.027832,1912.062744 1411.811523,1915.840698 1404.831787,1916.129517 
	C1400.692505,1912.934692 1400.280151,1908.246948 1399.927368,1903.622559 
	C1397.094238,1866.475220 1406.484741,1833.473999 1434.164185,1807.361450 
	C1449.647217,1792.754761 1466.066650,1779.140381 1482.621338,1764.631226 
z"/>
<path fill="#313131" opacity="1.000000" stroke="none" 
	d="
M800.333008,1215.587158 
	C800.427246,1216.419312 800.898743,1218.005615 801.719482,1220.375977 
	C801.615845,1219.553711 801.163025,1217.947510 800.333008,1215.587158 
z"/>
<path fill="#2B2B2B" opacity="1.000000" stroke="none" 
	d="
M1240.433105,964.842468 
	C1246.441528,927.202698 1257.935913,892.347656 1275.780396,859.670654 
	C1284.277954,844.109619 1294.804688,830.026855 1307.628906,817.719971 
	C1308.588379,816.799133 1309.505127,815.817688 1310.558716,815.018616 
	C1311.013062,814.674011 1311.765625,814.722473 1312.602173,814.546082 
	C1312.602173,821.990417 1312.667847,829.395996 1312.591064,836.800171 
	C1312.199951,874.539185 1316.079224,911.820251 1325.237549,948.443970 
	C1326.945923,955.275879 1325.937378,960.246643 1321.563477,965.718323 
	C1310.335205,979.764343 1299.709229,994.400452 1284.555420,1004.538208 
	C1278.020752,1008.909912 1270.807983,1012.833191 1263.339478,1015.115356 
	C1251.215332,1018.820312 1244.320801,1014.879089 1242.378662,1002.435059 
	C1240.499756,990.396545 1240.929443,977.997681 1240.433105,964.842468 
z"/>
<path fill="#2B2B2B" opacity="1.000000" stroke="none" 
	d="
M943.188110,819.246338 
	C944.612671,819.477600 945.325867,820.019287 945.989807,821.262268 
	C933.049744,828.847534 922.606323,838.512878 914.587646,850.623108 
	C904.942932,865.189026 903.943848,880.805603 908.940674,897.452759 
	C917.352051,925.475891 925.121155,953.691956 933.127197,981.836365 
	C933.662170,983.717041 933.917358,985.677368 934.105530,986.616394 
	C926.705444,992.931274 920.213745,999.030579 913.133545,1004.346069 
	C906.803040,1009.098755 900.273071,1014.101807 893.035156,1017.020447 
	C878.753601,1022.779419 867.431396,1016.524231 864.548767,1001.563843 
	C857.717407,966.109924 857.172485,930.724487 868.383240,895.917603 
	C880.486084,858.341309 904.399780,832.027954 943.188110,819.246338 
z"/>
<path fill="#2D2D2D" opacity="1.000000" stroke="none" 
	d="
M943.250610,1197.056396 
	C929.006470,1219.278809 910.448853,1233.494629 883.880127,1234.747192 
	C879.482361,1234.954468 875.031738,1234.040405 870.262573,1233.613892 
	C875.456482,1219.757690 936.002686,1155.102661 955.174377,1142.483521 
	C954.536621,1161.598633 952.109009,1179.614258 943.250610,1197.056396 
z"/>
<path fill="#BBBBBB" opacity="1.000000" stroke="none" 
	d="
M940.018799,1051.335693 
	C941.613220,1050.443848 943.153870,1049.423584 944.827881,1048.721436 
	C945.521606,1048.430542 946.500732,1048.819824 949.019226,1049.056763 
	C945.992493,1051.335693 944.121155,1052.744751 941.650269,1053.361084 
	C940.706787,1052.157593 940.362793,1051.746704 940.018799,1051.335693 
z"/>
<path fill="#282828" opacity="1.000000" stroke="none" 
	d="
M939.507935,1051.557129 
	C940.362793,1051.746704 940.706787,1052.157593 941.014587,1053.369873 
	C940.636780,1054.333130 940.295166,1054.494873 939.420593,1054.849609 
	C938.566345,1054.653564 938.245178,1054.264404 937.456177,1053.279785 
	C937.657837,1052.382446 938.327393,1052.080444 939.507935,1051.557129 
z"/>
<path fill="#292929" opacity="1.000000" stroke="none" 
	d="
M359.419647,482.459747 
	C389.977936,505.215759 410.614990,534.463989 424.245972,569.032471 
	C440.572235,610.436401 448.050446,653.581909 449.103027,697.831238 
	C450.423981,753.362793 445.828217,808.334351 429.925232,861.879089 
	C420.200500,894.622009 406.754486,925.717407 386.637543,953.556213 
	C367.804535,979.618408 344.667572,1000.843750 315.492523,1014.962524 
	C271.156616,1036.418091 230.276566,1030.809570 193.270920,998.267395 
	C177.621857,984.505981 164.505173,968.550354 153.952789,950.666565 
	C120.341766,893.704102 101.927673,832.601929 106.216133,765.927612 
	C108.696487,727.364563 118.860008,690.486267 134.597778,655.241089 
	C165.182114,586.746704 212.684326,531.799622 271.059601,485.597046 
	C274.417267,482.939575 277.235565,482.608246 281.029144,484.081451 
	C286.307739,486.131439 291.768372,487.796600 297.532898,485.239532 
	C300.129822,478.367401 292.818420,477.412720 290.580322,473.508636 
	C298.770081,467.723724 310.973572,465.269135 322.299866,466.842529 
	C335.827209,468.721680 347.768127,474.295837 359.419647,482.459747 
z"/>
<path fill="#2B2B2B" opacity="1.000000" stroke="none" 
	d="
M1257.162598,638.140869 
	C1245.506714,642.029114 1235.306030,641.301086 1226.987183,632.596924 
	C1218.244385,623.449097 1217.602661,612.268982 1220.921631,600.883728 
	C1224.148560,589.814331 1234.184814,583.150146 1245.936890,583.152466 
	C1257.510132,583.154785 1266.170654,589.303894 1270.166870,600.356018 
	C1275.400757,614.830872 1270.860229,628.707031 1257.162598,638.140869 
z"/>
<path fill="#313131" opacity="1.000000" stroke="none" 
	d="
M1064.541870,564.408142 
	C1066.020386,564.972961 1067.441772,566.003418 1068.034912,567.388550 
	C1073.401855,579.921875 1078.643066,592.509338 1083.856812,605.107544 
	C1084.331543,606.254822 1084.359131,607.587158 1084.710693,609.449829 
	C1071.716675,609.449829 1059.271729,609.449829 1045.586426,609.449829 
	C1051.901855,594.300476 1058.001221,579.669312 1064.541870,564.408142 
z"/>
<path fill="#2B2B2B" opacity="1.000000" stroke="none" 
	d="
M737.846130,631.677002 
	C724.468201,643.697632 707.578186,643.122681 697.796753,630.930847 
	C687.330811,617.885864 690.151978,596.458374 703.532715,587.364136 
	C716.604919,578.479614 735.360596,583.407593 741.509277,597.913452 
	C746.327698,609.280823 745.771912,620.637390 737.846130,631.677002 
z"/>
<path fill="#313131" opacity="1.000000" stroke="none" 
	d="
M1621.532837,605.652222 
	C1616.553589,605.890686 1616.508667,603.710693 1617.566406,600.615417 
	C1620.593140,591.758911 1626.363403,585.775024 1635.640259,583.841614 
	C1645.777954,581.728882 1655.038208,583.604187 1661.707153,592.089966 
	C1664.437622,595.564209 1665.926758,600.013855 1668.819458,605.655823 
	C1652.033569,605.655823 1637.203369,605.655823 1621.532837,605.652222 
z"/>
<path fill="#2C2C2C" opacity="1.000000" stroke="none" 
	d="
M1482.270264,599.115723 
	C1487.455933,588.563599 1495.275757,583.270630 1506.364746,583.123108 
	C1517.707642,582.972290 1526.277710,588.530396 1530.411133,599.135254 
	C1533.671265,607.499695 1533.697266,616.086731 1530.415649,624.458618 
	C1525.785278,636.270874 1515.812256,641.721375 1502.376587,640.132446 
	C1491.192871,638.809814 1481.745605,629.689453 1480.468628,617.534424 
	C1479.862061,611.760864 1481.424683,605.759399 1482.270264,599.115723 
z"/>
</svg>